<?xml version="1.0" encoding="utf-8"?>
<!-- Generator: Adobe Illustrator 23.0.3, SVG Export Plug-In . SVG Version: 6.00 Build 0)  -->
<svg version="1.1" id="Layer_1" xmlns="http://www.w3.org/2000/svg" xmlns:xlink="http://www.w3.org/1999/xlink" x="0px" y="0px"
	 viewBox="0 0 2800 2800" style="enable-background:new 0 0 2800 2800;" xml:space="preserve">
<style type="text/css">
	.st0{fill:#FAFAFA;}
	.st1{fill:#F5F5F5;}
	.st2{fill:#EEEEEE;}
	.st3{fill:#E0E0E0;}
	.st4{fill:#BDBDBD;}
	.st5{fill:#9E9E9E;}
</style>
<rect class="st0" width="2800" height="2800"/>
<path class="st1" d="M2800,0h-32.38c-28,85.56-67.45,165.42-131.04,228.26c-142.3,140.63-362.59,156.15-562.61,160.87
	c-200.01,4.72-419.03,13.98-568.14,147.37c-131.3,117.45-174.73,302.29-267.12,452.28c-109.42,177.64-294.14,307.16-498.45,349.48
	c-183.27,37.96-373.76,8.05-559.96,26.96c-60.27,6.12-122.16,19.67-180.31,41.2v710.02c47.48,16.24,97.61,25.34,147.66,27.13
	c265.48,9.51,526.38-169.82,782.74-100.15c183.07,49.75,318.13,217.9,503.39,258.72c304.35,67.07,588.42-231.64,898.69-202.36
	c152,14.34,284.97,106.15,401.95,204.26c21.97,18.42,43.75,37.24,65.56,56.06V0z"/>
<path class="st2" d="M2800,331.77c-42.33,82.58-120.09,150.92-206.16,189.57c-136.43,61.27-290.52,65.19-439.89,72.72
	c-149.37,7.52-304.79,21.57-432.67,99.11c-187.21,113.5-274.23,335.27-416.2,501.93c-161.54,189.62-403.39,308.46-652.2,320.48
	c-120.29,5.81-242.56-12.02-360.35,13.04S56.66,1638.74,46.2,1758.72c-12.14,139.21,130.72,252.33,270.14,261.71
	s272.1-54.43,397.53-116.03s259.08-124.16,398.29-112.05c259.25,22.54,451.05,294.62,711.25,298.06
	c128.72,1.7,247.1-63.9,364.45-116.82s253.56-94.51,372.39-45c110.02,45.84,172.03,154.24,239.75,256.53V331.77z"/>
<path class="st3" d="M2800,569.93c-44.16,70.82-93.99,135.92-166.03,175.82c-231.54,128.25-540.19-80.34-778.41,35.03
	c-195.15,94.51-239.77,352.54-387.33,511.41c-119.33,128.48-298.59,182.93-472.33,206.59c-173.74,23.66-351.37,22.13-521.68,63.85
	c-79.44,19.46-169.61,63.83-177.84,145.2c-5.84,57.76,36.45,112.51,89.39,136.33c52.95,23.82,113.88,22.15,171.17,12.71
	c238.15-39.26,458.22-203.74,697.2-169.85c237.59,33.7,421.49,257.56,661.23,268.03c218.46,9.54,427.56-163.42,639.15-108.21
	c98.17,25.62,172.73,94.4,245.48,167.89V569.93z"/>
<path class="st4" d="M2800,730.47c-1.55,2.17-3.14,4.29-4.79,6.34c-79.91,99.49-203.97,164.38-332.23,166.63
	c-151.45,2.65-299.31-73.85-449.31-52.82c-164.7,23.09-300.63,177.65-302.48,343.96c-1.01,90.26,39.94,186.44,120.81,226.56
	c65.41,32.45,145.24,22.96,211.83-7.01c66.58-29.97,122.9-78.25,179.12-124.84c79.38-65.77,161.74-130.13,256.36-171.06
	c94.62-40.93,203.94-56.63,301.3-22.76c6.46,2.25,12.92,4.71,19.4,7.3V730.47z"/>
<path class="st5" d="M1878.41,1088.88c-12.77,21.48-23.18,44.91-25.76,69.76c-2.57,24.85,3.48,51.37,20.25,69.9
	c25.99,28.72,70.01,31.84,108.34,26.29c62.27-9.01,121.86-35.8,169.92-76.4c25.39-21.45,48-47.31,60.07-78.28
	c12.07-30.97,12.44-67.6-4.42-96.24c-19.04-32.33-56.95-49.83-94.28-53.62C2011.6,940.02,1928.19,1005.14,1878.41,1088.88z"/>
<path class="st4" d="M2800,1179.35c-110.7-10.44-245.11,39.27-318.31,90.58c-117.26,82.19-201.71,219.05-340.15,255.67
	c-53.65,14.19-110.34,11.39-164.88,21.6c-54.54,10.21-111.37,38.51-130.97,90.43c-23.36,61.88,19.02,134.31,79.08,162.03
	s130.86,19.66,193.8-0.69c62.94-20.35,121.73-52.15,184.85-71.95c116.63-36.59,246.34-29.77,358.49,18.84
	c46.32,20.07,89.62,46.94,136.99,64.39c0.37,0.13,0.73,0.26,1.1,0.4V1179.35z"/>
<path class="st5" d="M2800,1319.53c-55.68-8.58-119.03,1.21-173.08,14.16c-59.46,14.24-124.11,46.35-137.95,105.91
	c-8.38,36.08,4.97,74.77,28.44,103.44c23.46,28.66,55.98,48.52,89.54,64.21c48.14,22.51,100.78,37.71,153.87,35.38
	c13.13-0.57,26.29-2.32,39.19-5.23V1319.53z"/>
<path class="st1" d="M1013.01,0c81.16,59.82,178.85,97.13,279.68,101.72c133.05,6.05,266.91-39.49,398.03-16.11
	c142.18,25.35,259.05,127.74,397.65,168.34c142.44,41.73,303.94,11.94,422.12-77.86C2571.1,130.03,2619.54,68.77,2652.1,0H1013.01z"
	/>
<path class="st1" d="M2800,2800v-225.6c-22.23-26.56-44.08-53.37-65.95-79.79c-106.43-128.55-228.18-258.16-389.38-301.38
	c-187.53-50.28-387.96,29.41-543.1,146.14c-155.14,116.73-279.64,269.16-427.12,395.44c-26.48,22.67-54.13,44.58-82.81,65.2H2800z"
	/>
<path class="st2" d="M1574.71,2800h958.48c-36.14-60.87-65.74-126.44-100.39-188.38c-54.63-97.68-130.61-193.23-238.16-224.17
	c-124.12-35.71-257.68,25.23-353.71,111.6c-96.03,86.37-166.74,197.06-255.97,290.43C1581.59,2793.01,1578.17,2796.51,1574.71,2800z
	"/>
<path class="st3" d="M2345.34,2800c-7.55-15.14-14.94-30.34-22.51-45.28c-34.42-67.92-79.9-137.49-151.47-163.46
	c-36.84-13.37-78.32-13.51-115.25-0.4c-63.01,22.36-107.16,79.29-139.65,137.73c-13,23.37-24.8,47.54-37.02,71.42H2345.34z"/>
</svg>
