<?xml version="1.0" encoding="utf-8"?>
<!-- Generator: Adobe Illustrator 23.0.3, SVG Export Plug-In . SVG Version: 6.00 Build 0)  -->
<svg version="1.1" id="Layer_1" xmlns="http://www.w3.org/2000/svg" xmlns:xlink="http://www.w3.org/1999/xlink" x="0px" y="0px"
	 viewBox="0 0 1400 1000" style="enable-background:new 0 0 1400 1000;" xml:space="preserve">
<style type="text/css">
	.st0{fill:#BCBCBC;}
</style>
<path class="st0" d="M1351.9,706.9c2.7-47.3-4.2-81.6-21.2-104.9c-15.6-21.4-36.2-29-51.2-34.5c-4.6-1.7-13.1-4.8-14.6-6.7
	c-0.2-0.5-1-4.6,3.1-16.1c13.3-37.5,14.5-60.8,3.9-77.9c-14.2-23.1-44.2-26.9-85.8-32.3c-6.2-0.8-12.7-1.6-19.5-2.6
	c-6.5-0.9-12.8-1.4-18.6-1.4c-35.7,0-52.3,17.2-64.5,29.7c-9.5,9.8-14.7,15.2-27.8,15.2c-5.9,0-13.1-1.1-21.3-3.4
	c-7.2-1.9-14-2.9-20.4-2.9c-21.3,0-38.1,10.3-49.8,30.8c-8.6,15-13.5,33.8-18.3,52c-6.8,26-13.8,52.9-29.3,58.8
	c-8.9,3.4-13.6,4.1-15.9,4.1c-0.2,0-0.3,0-0.4,0c-2.4-3.7-5-16.5-6.9-25.9c-3.3-16.3-7.3-36.7-16.4-59.9
	c-7-17.8-23.3-38.9-61.3-38.9c-43.4,0-101.2,28.9-147.7,52.1c-12.8,6.4-24.9,12.5-35.3,17.2c-46.2,21-54.4,60.8-62.2,99.4
	c-5.4,26.2-10.9,53.3-28.9,76.3c-18,23.6-26.3,63.2-32.4,92.1c-3,14.3-5.4,25.6-8,30.3c-5,8.9-32.2,10.9-43.7,11.3
	c-25,0.9-43.3,2.7-63.2,9c-32.2,10.2-39.5,37.6-44.3,55.6c-0.5,2-1,3.8-1.5,5.5l-0.5,1.7c-5.5,19.2-10.9,37.6-19.9,59.2h1.6
	c8.9-21.4,14.2-39.8,19.7-58.8l0.5-1.7c0.5-1.7,1-3.6,1.5-5.6c4.7-17.8,11.9-44.6,43.3-54.6c19.7-6.3,38-8,62.8-9
	c14.6-0.5,39.8-2.8,45-12.1c2.7-4.9,5.1-16.3,8.2-30.7c6-28.8,14.3-68.2,32.1-91.5c18.2-23.3,23.7-50.6,29.1-77
	c7.8-38.2,15.9-77.6,61.4-98.3c10.4-4.7,22.5-10.8,35.4-17.2c46.3-23.1,103.9-51.9,147-51.9c37.2,0,53.1,20.7,59.9,38
	c9.1,23.1,13.1,43.3,16.4,59.6c2.1,10.3,4.6,23.2,7.3,26.7l0.2,0.3h0.3c0.2,0,0.5,0,0.9,0c2.5,0,7.4-0.7,16.5-4.2
	c16.1-6.2,23.3-33.5,30.2-59.8c4.7-18.1,9.6-36.8,18.1-51.6c11.4-19.9,27.7-30,48.5-30c6.3,0,13,1,20.1,2.9
	c8.4,2.3,15.7,3.4,21.7,3.4c13.7,0,19.1-5.6,28.9-15.6c11.9-12.3,28.3-29.3,63.4-29.3c5.7,0,11.9,0.5,18.4,1.3
	c6.8,0.9,13.3,1.8,19.5,2.6c41.2,5.3,70.9,9.2,84.7,31.6c10.3,16.7,9,39.6-4.1,76.6c-4.9,13.7-3,17.4-2.9,17.4
	c1.5,2,8.1,4.6,15.4,7.3c14.8,5.5,35.2,12.9,50.5,34c16.8,23,23.6,57,20.9,103.9c-2,35.1,7.4,60.5,29.8,80.1
	c5.9,5.1,12.6,9.8,19.7,14.1V799c-6.8-4.1-13.1-8.5-18.8-13.4C1359.2,766.6,1349.9,741.5,1351.9,706.9z"/>
<path class="st0" d="M1335.7,706c2.5-43.3-3.4-74.2-18.1-94.3c-12.7-17.5-29.9-23.8-43.7-28.8c-20.2-7.4-32.4-11.9-21.2-43.4
	c11.5-32.3,13.1-51.5,5.4-64c-10.1-16.4-35.5-19.7-74-24.7c-6.3-0.8-12.7-1.6-19.6-2.6c-40.9-5.7-55.9,9.9-69.2,23.5
	c-13.9,14.4-26,26.8-65.1,16.2c-14.2-3.9-25.7-3-35.3,2.5c-18.8,10.9-25.8,37.5-33.2,65.7c-7.8,29.9-16,60.9-39.1,69.8
	c-14.5,5.6-24.1,6.7-30.1,3.3c-8.3-4.6-11-18.2-14.8-37.1c-3.1-15.7-7.1-35.3-15.6-57.1c-4.8-12.2-13-20.6-24.4-25
	c-38.8-14.9-107.2,19.3-162.2,46.8c-13,6.5-25.2,12.6-35.9,17.4c-38.7,17.6-45.6,51.7-53,87.8c-5.8,28.2-11.7,57.4-32.3,83.6
	c-1.1,1.2-11.3,12.4-20,30.7c-15,31.8-12.9,59.3-8.5,76.8c1.6,6.2,0.9,11.1-1.9,14.8c-8.3,11.1-35,12.1-63.3,13.1
	c-45,1.7-96.1,3.6-96.9,46.4c-0.4,18.8-6.9,44.7-17.9,72.5h5.4c10.6-27.1,17.1-52.8,17.5-72.4c0.3-17.1,9.6-28,29.2-34.2
	c17.7-5.6,40.7-6.5,62.9-7.3c30.8-1.1,57.3-2.1,67.1-15.1c3.7-5,4.6-11.4,2.7-19c-14.6-57.9,26.8-102.5,27.3-103l0.1-0.2
	c21.4-27.1,27.8-58.3,33.4-85.7c7.4-36.4,13.9-67.8,50.2-84.3c10.7-4.9,23-11,36-17.5c54.1-27,121.5-60.7,158.2-46.6
	c10.1,3.9,17.2,11.2,21.5,22.2c8.4,21.4,12.3,40.8,15.4,56.3c4,20.2,7,34.8,17.3,40.5c7.5,4.1,18.1,3.2,34.4-3
	c25.6-9.8,34-42.1,42.2-73.2c7.1-27.2,13.8-52.8,30.8-62.7c8.4-4.8,18.7-5.5,31.5-2c42,11.4,56.2-3.3,70-17.5
	c13-13.5,26.5-27.4,64.9-22.1c6.9,1,13.4,1.8,19.7,2.6c37.1,4.8,61.6,8,70.4,22.4c6.7,10.9,4.9,29.3-5.9,59.7
	c-12.8,36.2,4.3,42.5,24.2,49.8c27,9.9,64,23.5,58.5,118.2c-2.4,41.1,9.6,72.6,36.6,96.1c9.7,8.4,20.7,15.5,32.7,21.8v-5.8
	c-10.8-5.8-20.7-12.3-29.4-19.9C1344.5,775.2,1333.4,746,1335.7,706z"/>
<path class="st0" d="M434.8,69.6c-10.4,7.7-22.1,16.4-36,24.5c-13.1,7.6-22,12.2-26.5,13.7c-1.7-2.4-4.2-6.5-6.2-9.9
	c-4.8-8-11.4-19-21.4-32c-14.7-19-34.1-29-56.1-29s-41,10-53.1,18.4c-14.3,10-26.8,23.1-34.2,36.1c-1.2,2.2-2.4,4.3-3.6,6.4
	l-0.1,0.1c-14.4,25.6-24.8,44-58.8,57.3c-17.8,6.9-28.2,20.4-30.1,39c-1.3,13.2,1.9,26.9,4.8,39c1.5,6.2,3.9,16.6,3.6,20.9
	c-5.6,4.3-16.8,13.1-18,27.9c-0.7,9.8,2.7,18.6,8.5,33.2c3.8,9.6,9,22.9,14.9,41.2c3.9,12,4.7,21.2,2.2,25.4
	c-3.5,6-19,8.9-32.7,11.6c-11.1,2.1-22.7,4.4-33.7,8.6c-10.4,4-23.7,13.1-28,33.1c-2.5,11.4-1.5,23.9-0.6,36
	c1.4,18.1,2.7,35.3-6.6,46.6c-15.5,18.8-19.3,43.9-11.2,74.4c6.1,23.2,17.1,41.3,19.2,44.7c37.4,63.1,92.7,100.8,147.7,100.8
	c40.3,0,76.8-20.4,102.8-57.5c10.9-15.5,25.5-22.5,47.5-22.5c19.5,0,41.9,5.3,65.6,10.9c25.8,6.1,52.5,12.4,78.4,12.4
	c26.2,0,47.8-6.5,65.9-19.9c14.1-10.4,21.4-22.8,21.8-36.9c0.7-27.8-26.4-49.7-52.5-70.9c-8.9-7.3-17.4-14.1-23.7-20.4
	c-4.4-4.3-6.5-7.3-7.6-9c3.9-2.8,16-9.2,51.8-15.1c44.3-7.3,78.6-17,101.8-29.1c22.1-11.4,35.5-25.5,40.1-42
	c6.8-24.7-9-46.2-19.5-55l-1-0.8l-1.2-0.7c-24.7-15.4-37.7-36.9-40.8-67.8c-2.9-29.1,3.4-62,9-91c2.1-10.9,4.1-21.2,5.6-31.1
	c3.6-24-0.7-43.7-13-60.2c-10.3-13.8-24.8-23.4-38.9-32.6c-13.1-8.6-26.6-17.5-36.9-29.9c-14.1-17-28.6-25.3-44.4-25.3
	c-3.7,0-7.2,0.4-10.7,1.3c-10.1,4.4-21.2,10.4-32.5,16.7C442.5,63.9,438.7,66.7,434.8,69.6z M532.8,69.6
	c10.4,12.6,24.1,21.6,37.2,30.2c13.9,9.1,28.3,18.6,38.5,32.2c12.1,16.2,16.3,35.5,12.7,59.1c-1.5,9.8-3.5,20.1-5.5,31
	c-5.6,29.1-12,62.2-9,91.4c3.2,31.4,16.4,53.3,41.5,69l1.1,0.7l1,0.8c10.2,8.6,25.6,29.5,19,53.5c-4.4,16-17.6,29.8-39.3,41
	c-23.1,11.9-57.2,21.7-101.3,28.9c-37.9,6.2-49.7,13.1-53,15.8l-0.5,0.4l0.3,0.5c1,1.8,3.2,5,8.2,9.9c6.4,6.4,14.9,13.2,23.8,20.5
	c25.9,21,52.6,42.7,52,69.7c-0.3,13.6-7.4,25.6-21.2,35.7c-17.9,13.2-39.1,19.6-65,19.6c-25.7,0-52.3-6.3-78.1-12.4
	c-23.8-5.6-46.2-11-65.9-11c-22.5,0-37.5,7.1-48.7,23.1C254.9,715.9,218.8,736,179,736c-54.5,0-109.3-37.4-146.5-100.1
	c-2.1-3.4-13-21.4-19.1-44.3c-7.9-30-4.3-54.6,10.9-73.1c9.7-11.8,8.4-29.2,6.9-47.7c-0.9-12-1.9-24.3,0.6-35.6
	c4.2-19.4,17.1-28.1,27.1-32c10.9-4.2,22.3-6.4,33.4-8.6c14-2.7,29.8-5.7,33.7-12.3c2.7-4.5,1.9-14.2-2.1-26.6
	c-5.9-18.3-11.1-31.6-14.9-41.3c-5.7-14.4-9.1-23.1-8.4-32.6c1.1-14.3,12.3-22.9,17.6-27l0.2-0.2v-0.3c0.5-4.3-1.9-14.8-3.6-21.7
	c-2.8-12-6-25.6-4.7-38.5c1.8-18,11.9-31,29.1-37.8c34.5-13.5,45-32.1,59.6-57.9l0.1-0.1c1.2-2.1,2.4-4.3,3.6-6.4
	c7.3-12.8,19.6-25.7,33.8-35.6c11.9-8.3,30.6-18.1,52.2-18.1c21.4,0,40.4,9.8,54.9,28.4c10,12.9,16.5,23.8,21.3,31.8
	c2.2,3.8,4.8,8,6.6,10.4l0.3,0.4l0.5-0.1c4.5-1.3,13.7-6,27.3-14c14-8.2,25.8-16.9,36.2-24.6c18.8-13.9,35.1-25.9,53.8-25.9
	C504.9,44.8,519,52.9,532.8,69.6z"/>
<path class="st0" d="M407,108.1c-18.7,10.9-30.9,17.1-38.1,16.3c-6.3-0.7-10-6.9-16.8-18.2c-4.8-8.1-10.8-18.2-20.3-30.3
	C319.3,59.8,303,52,284.6,53.3c-27.9,2-57.1,25-69.2,46.1c-1.2,2.2-2.5,4.4-3.7,6.5c-14.9,26.3-27.7,49.1-67.1,64.4
	c-26.9,10.5-20.6,37.5-15.4,59.2c3.7,15.6,7.1,30.3-1.1,36.5c-17.4,13.2-15.3,18.4-5.5,43.2c3.9,9.9,9.2,23.4,15.3,42.1
	c5.6,17.4,5.8,30,0.7,38.7c-7.3,12.3-24.9,15.7-43.6,19.3c-10.4,2-21.2,4.1-30.8,7.8c-21.7,8.4-20,29.9-18.3,52.7
	c1.6,20.6,3.2,41.8-10.3,58.2c-12.7,15.4-15,37.7-6.8,64.5c6,19.7,15.5,34.8,16.1,35.8c33.4,56.4,81.9,91.1,129.8,93
	c1.3,0.1,2.7,0.1,4,0.1c34.9,0,66.6-17.8,89.6-50.6c29.4-41.9,78.3-30.3,130.1-18c46.3,11,94.2,22.3,130.9-4.7
	c9.8-7.3,14.9-15.4,15.2-24.1c0.5-19.8-23.4-39.2-46.5-57.9c-20.2-16.4-41.1-33.4-37.7-46.1c3-11.3,25.2-20.4,65.9-27.1
	c78.1-12.8,121.5-32.8,128.8-59.3c5.8-21-13.5-37.6-14.3-38.3l-0.3-0.2c-65.2-40.6-50.8-115.5-39.2-175.7c2.1-10.7,4-20.9,5.4-30.4
	c6.5-43.2-18.4-59.5-44.7-76.8c-14.1-9.3-28.7-18.8-40.5-33.2c-27.3-33.1-47-18.5-76.9,3.6C433.8,90.5,421.6,99.5,407,108.1z
	 M517.5,82.2c12.3,14.9,27.2,24.7,41.6,34.2c26,17.1,48.5,31.9,42.5,71.9c-1.4,9.4-3.4,19.5-5.4,30.2
	c-11.9,61.7-26.6,138.4,41.3,180.8c1.6,1.4,17.3,15.9,12.5,33c-4.7,16.8-30.1,40.2-124.8,55.7c-44.1,7.2-66.3,17-69.9,30.7
	c-4.2,15.9,17,33.1,39.4,51.3c22.2,18,45.1,36.6,44.7,53.9c-0.2,7.2-4.5,13.9-13.1,20.2c-34.8,25.6-81.6,14.6-126.8,3.8
	c-26.7-6.3-51.9-12.3-75.1-11.4c-26.4,1-46.1,11.3-60.2,31.4c-22.8,32.5-54.5,49.7-89.3,48.4c-46.2-1.8-93.2-35.6-125.8-90.6v-0.1
	c-0.4-0.6-37.9-60.3-9.7-94.5c14.8-17.9,13-41.2,11.4-61.7c-1.7-21.8-3.1-40.6,15.1-47.7c9.2-3.6,19.8-5.6,30-7.6
	c19.8-3.8,38.6-7.4,47-21.6c5.9-9.9,5.8-23.9-0.3-42.7c-6.1-18.9-11.5-32.5-15.4-42.4c-9.6-24.5-10.4-26.5,3.9-37.4
	c10.8-8.2,6.9-24.4,2.9-41.6c-5.2-21.8-10.5-44.4,12.4-53.4c41.1-16,54.3-39.5,69.6-66.6c1.2-2.1,2.4-4.3,3.7-6.5
	c9.6-16.9,36.2-41.6,65.2-43.6c1.2-0.1,2.5-0.1,3.7-0.1c15.3,0,28.5,7,39.2,20.8c9.3,11.9,15.2,21.8,20,29.8
	c7.3,12.2,11.7,19.6,20.5,20.6c8.7,0.9,20.7-5,41.2-16.9c14.9-8.7,27.1-17.8,37.9-25.8C478,64.1,493.3,52.8,517.5,82.2z"/>
<path class="st0" d="M322.3,114.7c-13.2-17-28.5-25.5-44.2-24.4c-12.8,0.9-30.8,9.4-42.8,30.4c-14.2,24.9-28.2,45.2-68,60.8
	c-22.9,9-16.4,32.8-10.7,53.8c4.2,15.3,8.2,29.8,0,36l-0.6,0.6c-19.5,14.9-19.5,14.9,0.2,72l0.5,1.5c9.3,27,6.6,47.5-8.2,62.8
	c-12.9,13.2-32.5,20.3-49.8,26.5c-4.1,1.5-7.9,2.8-11.5,4.2c-17.5,6.8-16.4,22.6-15.1,40.8c1.3,18.6,2.7,39.7-14.1,58
	c-18.6,20.3-7.6,59.5,2.4,76.1c29.2,48.2,63.2,74.2,100.8,77.1c2.3,0.2,4.5,0.3,6.8,0.3c34,0,69.6-19.3,98.6-53.8
	c24-28.5,76.1-15.4,126.4-2.8c54.3,13.6,105.6,26.5,119-12.6c3.1-9.1-14.5-24.1-36.8-43c-27.8-23.6-62.4-53.1-56-74.7
	c4.2-14.3,26.3-24.2,65.6-29.5c46.4-6.2,81.5-14.4,104.3-24.4c18.2-8,28.6-17.1,31.1-27.1c3.7-15-11.8-26.8-13.1-27.7
	c-60.6-70.8-46.8-114.4-33.5-156.6c3.9-12.4,8-25.2,10-38.4c5.7-38-15.3-51.8-39.5-67.8c-12.8-8.4-25.9-17.1-36.7-30.2
	c-22.6-27.5-35-17.4-57.7,0.9c-9.3,7.5-20.9,16.9-35.7,25.6C363.8,158.6,355.2,157.3,322.3,114.7z M414.8,130.4
	c14.9-8.8,26.6-18.2,35.9-25.8c22.6-18.3,33.9-27.5,55.6-1.1c10.9,13.3,24.2,22,37,30.5c23.8,15.7,44.4,29.3,38.8,66.3
	c-2,13.1-6,25.9-9.9,38.2c-13.5,42.6-27.4,86.6,33.8,158.1l0.1,0.1c0.2,0.1,16.2,11.7,12.6,26.2c-6.9,27.8-76.7,42.8-134.1,50.4
	c-40.5,5.4-62.4,15.4-66.8,30.5c-6.6,22.5,26.9,51.1,56.5,76.2c20.1,17.1,39.1,33.3,36.4,41.4c-12.9,37.8-63.6,25.1-117.2,11.7
	c-50.8-12.7-103.4-25.9-127.9,3.3c-30.6,36.4-68.6,55.8-104.1,53c-37.2-2.9-70.7-28.6-99.7-76.4c-9.5-15.7-20.4-54.9-2.6-74.3
	c17.3-18.8,15.8-40.2,14.5-59.2c-1.3-18.4-2.3-32.9,14.2-39.3c3.6-1.4,7.4-2.8,11.4-4.2c34-12.2,80.5-28.9,59-91.2l-0.5-1.5
	c-19.4-56-19.4-56-0.7-70.3l0.7-0.5c8.9-6.8,4.9-21.8,0.5-37.6c-5.8-21.4-11.9-43.5,9.8-52c40.3-15.8,54.5-36.3,68.8-61.5
	c11.7-20.5,29.1-28.8,41.6-29.6c15.2-1.1,30,7.1,42.9,23.8C354.4,158.7,364,160.2,414.8,130.4z"/>
<path class="st0" d="M358.3,173.8c-13-1.5-24.4-10.3-40.8-31.4c-14.3-18.5-29.6-27.7-44.3-26.7c-12.3,0.9-23.7,9.2-31.5,22.8
	c-2.8,5-5.3,9.9-7.6,14.7c-9.8,19.7-18.2,36.7-47.2,48c-21.5,8.4-16,31-11.1,50.9c3.5,14.4,6.8,28.1-0.7,33.9
	c-1.7,1.3-3.2,2.4-4.6,3.4c-12.6,9.2-12.4,9.9-0.4,43.9c1.6,4.6,3.4,9.7,5.4,15.6c9.6,27.9,6.6,51.9-9.1,71.2
	c-10.7,13.2-27.3,24.2-49.5,32.9c-16.5,6.5-16.8,19.4-17.1,34.4c-0.3,15.1-0.7,32.2-16.2,49.1c-17.3,18.9-13.4,51.5-4.1,66.9
	c27.2,44.9,59.5,68.8,93.4,69c0.2,0,0.4,0,0.6,0c32.4,0,65.4-21.8,88.5-58.5c18.5-29.4,80.6-13.2,135.5,1.2
	c44.8,11.7,83.5,21.8,89.1,4.1c1.7-5.2-10.5-16.1-32.2-34.8c-32.9-28.4-77.9-67.4-69.9-94.2c4.3-14.3,23.7-23.9,57.8-28.4
	c113.9-15.2,144.7-36.4,150.6-51.6c3.1-8.1-1.3-13.4-1.5-13.7c-64.1-68.1-49.5-107.8-35.3-146.2c4.4-12,8.9-24.3,10.9-37.2
	c5.2-34.8-10-43.9-29.2-55.5c-10.5-6.3-22.4-13.5-32.8-26.1c-22.3-27.1-37.8-15.9-63.4,2.7c-8.8,6.4-18.7,13.6-30.6,20.6
	C389.1,167.7,372.6,175.4,358.3,173.8z M411.9,156c12-7,21.9-14.3,30.7-20.7c25.8-18.7,39.9-29.1,61.3-3
	c10.6,12.9,22.6,20.1,33.2,26.4c18.7,11.2,33.5,20.1,28.5,53.9c-1.9,12.7-6.4,25-10.8,36.9c-14.3,38.8-29,79,35.6,147.7
	c0,0,4,4.9,1.2,12.2c-10.9,28.1-98.3,43.8-149.4,50.6c-35.2,4.7-54.5,14.3-59,29.5c-8.3,27.8,37.2,67.1,70.3,95.8
	c17.1,14.8,33.2,28.7,31.7,33.2c-5.2,16.3-43.2,6.4-87.3-5.1c-55.4-14.5-118.1-30.9-137.1-0.5c-22.8,36.3-55.3,57.8-87.2,57.8
	c-0.2,0-0.4,0-0.6,0c-33.3-0.3-65.2-23.9-92.1-68.3c-9.1-15-12.9-46.8,3.9-65.1c15.9-17.3,16.2-35.5,16.5-50.1
	c0.3-15.1,0.6-27,16.2-33.1c22.4-8.7,39.2-20,50.1-33.3c16-19.7,19.2-44.2,9.3-72.6c-2-5.9-3.8-11-5.5-15.6
	c-11.8-33.6-11.8-33.6-0.1-42.1c1.4-1,2.9-2.1,4.6-3.4c8.3-6.4,4.9-20.5,1.3-35.4c-4.9-20.3-10-41.2,10.2-49.1
	c29.4-11.5,38.4-29.6,47.9-48.7c2.4-4.7,4.8-9.7,7.6-14.6c7.5-13.2,18.5-21.2,30.3-22c0.7-0.1,1.4-0.1,2.1-0.1
	c13.5,0,27.6,9,40.9,26.2C348.5,184.7,365.6,183.3,411.9,156z"/>
<path class="st0" d="M988.9,113.1c-11.4,43.1-22.2,83.8-11.3,112.1c13.8,35.7,0.8,72.1-10.7,104.2c-10.1,28.2-18.8,52.6-6.1,69.5
	c13.5,17.9,31.9,13.5,53.3,8.3c21.6-5.2,46.2-11.2,72.6,4.4c5.8,3.4,11.5,4.9,17.1,4.9c17.7,0,34.6-14.7,52.3-30.1
	c15.9-13.8,32.4-28.1,51.1-34.1c21.1-6.7,41.9-1.4,63.6,16.3c35.9,29.2,67.5,44,94.1,44c4,0,7.8-0.3,11.6-1
	c8.5-1.5,16.3-4.6,23.4-9.3v-6.1c-7.3,5.5-15.5,9-24.3,10.5c-27.4,4.8-61.6-9.3-101.7-42c-23.2-18.9-45.5-24.5-68.3-17.2
	c-19.7,6.3-36.6,20.9-52.9,35.1c-22.9,19.9-42.6,37-63.6,24.7c-28.2-16.6-54.9-10.1-76.3-4.9c-20.4,5-36.5,8.9-48.1-6.5
	c-11.1-14.7-2.8-37.9,6.8-64.8c11.8-32.9,25.1-70.2,10.6-107.7c-10.3-26.7,0.3-66.7,11.5-109c10.9-41.1,22-83.1,13.7-114.5h-5.4
	C1010.9,30.3,999.8,72.2,988.9,113.1z"/>
<path class="st0" d="M604.6,78.1c8.2,14.4,20.8,24,37.3,28.4c24.3,6.4,36.9,22.1,39.5,49.3c2.3,24.5-3.8,55-9.7,84.6
	c-3.3,16.6-6.8,33.8-8.6,49.4c-3.8,33.1,1.4,56.8,15.8,72.5c15.4,16.8,41.8,24.4,80.7,23.3c17.1-0.5,28.9,4.4,36,15
	c6.4,9.4,8.4,21.9,10.4,33.9c2.8,17.4,5.5,33.7,22,34.7c0.5,0,1,0,1.5,0c28.2,0,57.2-44.7,73.6-83.6c19.9-47.2,30.9-107.4,8.1-128.3
	c-39.4-36.1-56.4-58.9-58.7-78.8c-2.3-19.7,9.6-37.9,29.1-65.9c19.2-27.6,5.4-50.4-7.9-72.4c-8-13.5-15.8-26.4-16.7-40.3h-5.1
	c0.9,15.2,9.3,29.1,17.6,42.7c13.1,21.6,25.4,42,8.1,67c-20.2,29-32.4,47.8-29.9,69.3s19.4,44.5,60.3,81.9
	c9.2,8.4,12.8,25.5,10.5,49.4c-2.1,21.9-9.2,48-19.9,73.3c-17.3,41.1-45.8,81.9-70.2,80.5c-11.9-0.7-14.3-12-17.3-30.5
	c-3.9-24.2-8.9-54.3-51.5-53.1c-37.4,1.1-62.5-6-76.9-21.7c-13.4-14.6-18.1-37-14.5-68.5c1.8-15.3,5-31.7,8.5-49
	c6-29.9,12.2-60.8,9.8-86c-2.8-29.2-16.9-46.8-43.2-53.7c-15.2-4-26.7-12.8-34.3-26c-12.8-22.4-12-53.5-9.2-75.7h-5.1
	c-0.4,3-0.7,6.1-1,9.4C591.3,38,595,61.2,604.6,78.1z"/>
<path class="st0" d="M133.2,784.2c22.4,7.4,43.3,5.9,64-4.6c32.2-16.4,56.1-30.2,73.5-40.3c31.5-18.3,47.3-27.4,64.2-22.3
	c14.8,4.5,22.8,18.5,31.6,36.4c5.2,10.4,11.9,14.9,23.4,15.4c12.7,0.6,28.5-4,42.5-8c12.1-3.5,23.5-6.7,33.7-7.3
	c22.3-1.2,31,11.6,34.2,19.3c4.5,10.8,9.5,27,1.5,42.4c-11.3,21.8-41.3,30.5-106.9,45.2c-35.6,8-53.8,52.6-66.9,95.2
	c-2.5,8-4.4,16.2-6.2,24.2c-1.6,6.9-3.2,13.7-5.1,20.2h1.6c1.8-6.4,3.4-13.1,5-19.9c1.8-7.9,3.7-16.1,6.2-24.1
	c13-42.2,30.9-86.4,65.8-94.2c66.1-14.8,96.3-23.6,107.9-46c8.3-15.9,3.1-32.6-1.5-43.7c-3.3-8.1-12.4-21.4-35.7-20.2
	c-10.4,0.5-21.9,3.8-34,7.3c-13.9,4-29.6,8.5-42,8c-10.9-0.5-17.3-4.7-22.2-14.6c-9-18.2-17.1-32.6-32.5-37.2
	c-17.5-5.3-33.5,4-65.4,22.5c-17.4,10.1-41.2,23.9-73.4,40.3c-20.3,10.3-40.9,11.8-62.9,4.6C71.7,762.2,19.5,680,0,645.7v3
	C20.6,684.4,72.1,764,133.2,784.2z"/>
<path class="st0" d="M126.9,802.9c27.3,9,53.9,7.1,79.2-5.8c32.7-16.6,56.9-30.6,74.5-40.9c26.5-15.4,39.8-23.1,48.5-20.5
	c6.6,2,11.8,10.4,19.6,26.3c18.7,37.8,57.7,26.6,89.1,17.6c22-6.3,39.3-11.3,44.2,0.6c4.8,11.6,5.5,19.5,2.2,25.8
	c-7.7,14.9-40.6,23.2-93.7,35.1c-46.1,10.3-61.5,60.3-76.3,108.7c-5.4,17.7-10.8,35-17.4,50.2h5.4c6.5-15.2,11.7-32.1,16.8-48.7
	c14.4-47,29.4-95.6,72.7-105.3c59.6-13.4,88.6-21.4,97.1-37.7c4-7.6,3.3-16.9-2.1-30c-6.6-16-26.8-10.2-50.2-3.5
	c-31.1,8.9-66.3,19.1-83.2-15c-8.7-17.5-14.3-26.3-22.7-28.8c-10.8-3.2-23.8,4.3-52.5,21c-17.6,10.2-41.6,24.2-74.2,40.7
	c-24.1,12.2-49.5,14.1-75.4,5.5c-44.2-14.7-83-57.4-107.7-90.7C12.9,696.9,6,686.5,0,677.2v9.2c5,7.6,10.6,15.7,16.7,24
	C41.9,744.3,81.4,787.8,126.9,802.9z"/>
<path class="st0" d="M75.3,252.4c18.8-2.6,29-6.9,33.1-14.1c4.9-8.5,0.5-19.5-5.1-33.3c-3.9-9.7-8.4-20.7-10.9-33.5
	c-8.8-45,10.8-57.6,68.7-87.3C207,60.6,227.7,29.9,237,8.3c1.2-2.9,2.3-5.6,3.2-8.3h-5.3c-0.7,2-1.6,4.2-2.5,6.3
	c-16.2,37.8-48.9,60.8-73.6,73.5c-27.5,14.1-49.4,26-61.3,39.7c-11.6,13.4-14.6,29.3-10,53c2.6,13.3,7.2,24.5,11.2,34.5
	c5.1,12.6,9.1,22.5,5.4,28.9c-3.3,5.6-12.6,9.3-29.5,11.7c-7.1,1-14.2,1.8-21,2.6c-19.5,2.3-38.1,4.6-53.6,9.4v5.1
	c15.2-4.9,33.8-7.1,54.2-9.6C61.1,254.2,68.2,253.4,75.3,252.4z"/>
<path class="st0" d="M1329.5,939.2c-2.8-31.2-7-46.8-14.9-55.6c-8.1-8.9-19.7-9.9-35.7-11.4c-12-1.1-27-2.4-45.8-7.3
	c-27-7-41.9-20.5-47-42.4c-4.7-20.4-0.9-45.7,3.4-75c1.1-7.7,2.3-15.7,3.4-23.8c1.2-8.8,2.5-17.5,3.8-25.8
	c4.6-29.3,8.6-54.6,2.4-75.8c-6.9-23.6-25.9-38.5-59.7-46.7c-16.4-4-29.5,0.1-40,12.6c-9.1,10.8-15.4,26.4-21.9,42.9
	c-13.6,34.1-27.7,69.4-69.3,64.5c-18.4-2.2-24.5,15.1-31,33.3c-8.1,22.7-17.2,48.4-50.7,49.2c-30.4,0.7-53.4-28.7-77.9-59.9
	c-24.9-31.7-50.6-64.5-86.7-69.1c-8.8-1.1-16.1,0.8-21.7,5.8c-16.3,14.3-16.4,51.3-16.6,90.4c-0.2,50.2-0.4,102-34.4,106.3
	c-60,7.5-58.8,31-56.9,70c0.5,9.4,1,20,0.7,31.5c-0.5,18.6-8.1,34.3-18.2,47h6.3c10.7-14.6,16.4-30.5,16.8-46.9
	c0.3-11.7-0.2-22.4-0.7-31.8c-1.9-38.5-2.9-57.8,52.5-64.7c38.4-4.8,38.6-58.9,38.8-111.2c0.1-38,0.3-73.9,14.8-86.7
	c4.6-4,10.4-5.5,17.8-4.6c34.1,4.4,59.2,36.3,83.4,67.2C869.4,753,893,783,925.2,783c0.4,0,0.8,0,1.2,0
	c36.9-0.9,47.1-29.5,55.3-52.5c7-19.7,12-31.6,25.7-30c2.9,0.3,5.6,0.5,8.2,0.5c39.2,0,53.6-36.1,66.4-68.1
	c12.9-32.4,24.1-60.3,56.1-52.5c31.9,7.8,49.7,21.5,56.1,43.3c5.9,20.1,2,44.9-2.5,73.6c-1.3,8.4-2.7,17.1-3.8,26
	c-1.1,8.1-2.2,16-3.4,23.7c-4.4,29.8-8.3,55.6-3.4,76.9c5.5,23.9,21.6,38.6,50.6,46.2c19.2,5,34.4,6.3,46.6,7.4
	c31.3,2.7,40.8,3.6,46.1,62.4c0.9,10.6,2.6,29-0.1,60.2h4.9C1331,980.1,1331.4,959.4,1329.5,939.2z"/>
<path class="st0" d="M1382.4,925.1c-3.1-34.3-7.7-52.1-16.2-61.5c-8.5-9.5-20.6-10.5-38.8-12.1c-13.6-1.2-30.5-2.7-51.8-8.2
	c-67.8-17.7-60.2-69.4-50.5-134.8c1.3-8.7,2.6-17.6,3.8-26.8l0.7-5.7c4.9-37.1,8.1-61.7-1.2-80.2c-9.3-18.6-31.4-30.6-76.3-41.6
	c-39.2-9.6-56.2,16.4-74.1,44c-19.1,29.3-38.8,59.6-87,53.9c-19-2.2-22.4,15.3-26.3,35.5c-5,26.1-10.6,55.6-49.8,56.5
	c-0.4,0-0.9,0-1.3,0c-34.2,0-56.1-32.7-79.3-67.3c-23.8-35.4-48.3-72.1-88.4-77.2c-9.2-1.2-16.9,0.8-22.7,6
	c-17.6,15.5-17.8,56.8-17.9,100.5c-0.2,57.5-0.4,116.9-40.5,121.9c-30.9,3.9-48.3,11.6-56.4,25.1c-7.7,12.7-6.8,29.9-5.7,51.6
	c0.5,10.6,1.1,22.6,0.8,35.6c-0.6,24.6-12.1,44.6-25.2,59.5h2c12.9-15,24.1-35,24.7-59.5c0.3-13.1-0.3-25.1-0.8-35.7
	c-2.2-43.3-3.4-67.1,60.8-75.2c41.3-5.2,41.5-65.3,41.8-123.4c0.2-43.4,0.3-84.3,17.4-99.4c5.6-4.9,12.7-6.7,21.6-5.6
	c39.4,5,63.7,41.4,87.3,76.5c23.4,35,45.6,68,80.6,68c0.4,0,0.9,0,1.3,0c40.4-1,46.4-32.5,51.3-57.8c3.9-20.3,7-36.4,24.6-34.3
	c22,2.6,40.2-2.1,55.6-14.3c13.6-10.7,23.4-25.8,32.8-40.3c17.6-27.1,34.3-52.7,72.5-43.3c89.2,21.8,86,46.6,76.4,120.1l-0.7,5.7
	c-1.2,9.1-2.5,18.1-3.8,26.7c-5,33.4-9.2,62.3-3.8,85.9c6,26.2,23.6,42.2,55.4,50.5c21.4,5.6,38.4,7.1,52,8.3
	c35.6,3.1,47.6,4.2,53.7,72.2c1.1,12.7,3.2,35.4-0.7,74.7h1.5C1383.9,975.6,1384.6,950,1382.4,925.1z"/>
<path class="st0" d="M1298.7,459.1c-8.4,17.5,2.3,33.2,13.8,49.8c11.8,17.1,23.9,34.8,19.4,57.5c-2.7,13.6,0.6,27.4,9.8,41.2
	c12.7,19,35.2,35.3,58.3,46.4v-5.5c-21.5-10.7-42.3-25.9-54.1-43.6c-8.5-12.7-11.5-25.3-9.1-37.5c5-24.8-8.4-44.2-20.1-61.3
	c-11-16.1-20.6-29.9-13.4-44.8c7.5-15.6,32.3-26.5,71.6-31.6c8.8-1.1,17.4-1.9,25.2-2.3v-5.1
	C1364.4,424.4,1311.8,432.1,1298.7,459.1z"/>
<path class="st0" d="M343.1,524.5c12.3-13.1,10.9-23.2,7.6-29.3c-19.7-36.5-31.1-59.7-24.3-73.1c4.4-8.8,16.8-14.1,40.1-17.4
	c30.3-4.2,64.1-22.7,90.6-49.4c28-28.2,42.6-60.7,40.2-89c-2.1-24-9-39.6-21.3-47.6c-20.6-13.4-52.6-2.4-83.6,8.2
	c-26.7,9.2-54.3,18.6-73.8,12.4c-19.8-6.4-55.2-14.9-70-0.5c-7,6.8-8.4,17.5-4.2,32c2.1,7.2,4.6,14.6,7.2,22.5
	c13.4,40.4,28.7,86.2-2.4,116.1c-8.3,8-17.3,15.3-26.8,22.9c-34.2,27.6-69.5,56.2-76.3,121.7c-1.1,10.5,3.7,18.6,13.8,23.2
	c7.3,3.3,17,4.8,28.3,4.8C237.8,581.9,316.7,552.7,343.1,524.5z M252.1,565.9c-39.1,11.6-73.7,14.1-90.1,6.6
	c-8.2-3.7-11.8-9.7-10.9-18.1c6.6-63.4,41.1-91.3,74.5-118.3c9.6-7.8,18.6-15.1,27.1-23.2c14.9-14.4,21.3-33.3,19.4-57.8
	c-1.6-21-9.1-43.6-15.7-63.5c-2.6-7.8-5.1-15.2-7.1-22.3c-3.6-12.5-2.7-21.6,2.9-27c4.5-4.3,12.1-6.5,22.2-6.5
	c11.4,0,25.9,2.7,42.8,8.1c21,6.8,49.5-3,76.9-12.4c29.8-10.2,60.7-20.8,79.2-8.7c10.9,7.1,17.1,21.4,19,43.8
	c5.1,58.7-66.9,124.7-126.5,133c-25.1,3.5-38.6,9.7-43.9,20.1c-8.1,15.9,4,39.9,24.4,77.8c3.7,6.8,1.3,14.7-6.9,23.5
	C324.3,537.3,290.8,554.5,252.1,565.9z"/>
<path class="st0" d="M510.4,350c-15,0-28.9,5.9-39.4,16.6c-22.3,22.9-50.1,39.2-82.7,48.5c-23.6,6.8-48.2,18.5-46.8,28.2
	c1.1,7.1,16.1,10.9,43.5,10.9c2.7,0,5.5,0,8.5-0.1c60.3-1.5,155-16,169-50c4.6-11.2,0.4-23.7-12.6-37.3
	c-10.4-10.8-24.3-16.8-39.3-16.9C510.5,350,510.5,350,510.4,350z M561.2,403.6c-13.7,33.3-107.8,47.6-167.7,49.1
	c-14.7,0.4-49,0.2-50.5-9.5c-1.1-7.4,18.5-18.8,45.7-26.6c32.9-9.4,60.9-25.9,83.4-48.9c10.2-10.4,23.8-16.2,38.3-16.2
	c0.1,0,0.2,0,0.2,0c14.6,0.1,28.2,5.9,38.3,16.4C561.4,381,565.5,393,561.2,403.6z"/>
<path class="st0" d="M509.6,368.9c-10,0-19.3,3.9-26.3,11.1c-14.8,15.1-33.2,25.9-54.8,32.1c-10.4,3-25.5,7.5-38,12.1
	c-20.9,7.6-23.1,11-22.7,13.1c0.4,2,3.5,3.9,18.8,3.9c9.6,0,24-0.8,45.6-2.7c44.3-4.1,104.2-12.1,112.6-34.3
	c2.7-7.1-0.2-15.2-8.7-24c-6.9-7.2-16.3-11.2-26.3-11.3C509.7,368.9,509.7,368.9,509.6,368.9z M543.3,403.6
	c-3.7,9.8-18.9,17.8-45.3,23.9c-21.9,5-46.8,7.7-66,9.5c-55.7,5.1-62.4,1.7-62.7,0c-0.2-1,1.8-6.9,59.7-23.4
	c21.8-6.3,40.5-17.2,55.4-32.5c6.7-6.9,15.6-10.6,25.2-10.6c0.1,0,0.1,0,0.2,0c9.6,0,18.6,3.9,25.2,10.8
	C542.9,389.5,545.7,397,543.3,403.6z"/>
<path class="st0" d="M494.8,394.8c-6.4,7.1-14.5,12.3-24.1,15.5c-2.3,0.8-7,2.2-12.5,3.8c-35.2,10.3-41.3,12.9-40.8,15
	c0.1,0.5,0.3,1.2,3.8,1.2c5.4,0,18.6-1.5,51.8-7.2c1.2-0.2,2.5-0.4,3.8-0.6c17.5-2.9,43.9-7.3,47.1-17.6c1-3.4-0.5-7-4.5-10.9
	c-3.4-3.2-7.8-4.9-12.5-4.7C502.2,389.3,497.9,391.4,494.8,394.8z M518.3,395c3.6,3.5,5,6.6,4.1,9.4c-2.9,9.4-29.8,13.9-45.9,16.6
	c-1.3,0.2-2.6,0.4-3.8,0.6c-40.7,7-51.2,7.6-53.6,7.1c3.3-2.5,26.6-9.4,39.4-13.1c5.5-1.6,10.2-3,12.5-3.8
	c9.9-3.3,18.2-8.6,24.8-15.9c2.9-3.2,6.8-5,11-5.2C511.2,390.5,515.2,392.1,518.3,395z"/>
<path class="st0" d="M308.9,462.6c-6-22.7-11.7-44.1-3.3-56.6c3.9-6,10.8-9.6,20.9-11c48.5-6.9,124.1-40.5,132-90.6
	c2.8-17.9,7.5-29.7,10.8-38.3c3-7.7,4.9-12.4,2.9-15.9c-1.9-3.4-7.1-5.2-20.4-7.4c-15.1-2.4-30.5,5.6-46.8,14.1
	c-24.2,12.7-51.7,27-85,10l0,0c-1.3-0.7-31.8-16-43-9.7c-2.5,1.4-3.8,3.7-4.1,7c-0.4,5.3,3.7,13.5,8.9,23.9
	c14.5,29.1,36.4,73.1-3.4,116.3c-12.1,13.2-26.1,27.1-39.7,40.5c-37.6,37.3-73.2,72.6-67.5,90.2c1.8,5.5,7.5,9,16.9,10.5
	c10.3,1.6,21.3,2.4,32.4,2.4c11.4,0,22.9-0.9,33.7-2.6c16.5-2.7,38.9-8.6,52.2-21.6c8.1-7.9,11.4-17.3,10-27.8
	C314.9,485.2,311.9,473.7,308.9,462.6z M305.4,522.9c-21.9,21.5-76.7,27.7-117,21.3c-9-1.4-14.1-4.5-15.7-9.5
	c-5.4-16.8,31.5-53.3,67.1-88.7c13.6-13.5,27.6-27.4,39.7-40.6c17.9-19.4,25.2-40.6,22.3-64.8c-2.4-20.4-11.4-38.6-18.7-53.1
	c-5.1-10.2-9.1-18.2-8.8-23.2c0.2-2.7,1.3-4.6,3.3-5.8c1.7-1,3.9-1.4,6.4-1.4c13.1,0,34.8,10.9,35.2,11.1c34,17.4,61.8,2.9,86.4-10
	c16.1-8.4,31.2-16.3,45.9-14c12.6,2,17.7,3.8,19.3,6.6c1.6,2.8-0.1,7.3-3,14.6c-3.2,8.2-8.1,20.6-10.9,38.6
	c-7.8,49.3-82.6,82.5-130.7,89.4c-10.5,1.5-17.7,5.3-21.9,11.7c-8.7,13.1-2.9,34.8,3.1,57.8c2.9,11.1,6,22.5,7.5,33.4
	C316.3,506.4,313.1,515.3,305.4,522.9z"/>
<path class="st0" d="M371.4,364.2c5.5,0,11.2-1,17.2-3.3c43.4-16.3,47.1-35.4,51.7-59.7c1.7-9,3.5-18.3,7.4-28.7
	c3.4-9,3.8-13.9,1.5-15.7c-3.9-3.1-14.1,3.8-28.3,13.3c-11.5,7.7-24.6,16.5-36.1,20.8c-16.4,6.1-44.5-3.8-65.1-11.1
	c-4.9-1.8-9.6-3.4-13.4-4.6c-3.4-1-6.9,0-9.3,2.6c-2.3,2.7-2.8,6.3-1.3,9.5C311.7,321.6,336.1,364.2,371.4,364.2z M297,286.7
	c-1.2-2.7-0.8-5.7,1.1-7.9c1.9-2.2,4.9-3.1,7.7-2.2c3.8,1.2,8.5,2.8,13.4,4.6c20.8,7.4,49.2,17.4,66.1,11.1
	c11.7-4.4,24.8-13.2,36.4-21c12.1-8.1,23.5-15.7,26.5-13.3c1.2,0.9,1.8,4.1-1.9,14c-3.9,10.5-5.8,20.3-7.4,29
	c-4.7,24.7-8.1,42.6-50.8,58.6C355,371.9,326,348.8,297,286.7L297,286.7z"/>
<path class="st0" d="M358,342.3c5.2,2.5,11.9,4.7,19.6,4.7c7,0,14.7-1.8,22.8-6.9c17.6-11,28.9-29.1,28.4-39.1
	c-0.1-3-1.3-5.1-3.4-6.2c-4.2-2.1-11.5,0.2-21.2,6.6l-0.2,0.2c-0.1,0.1-7,8.4-21.2,8.4c-4.9,0-10.6-1-17.3-3.6c-2.5-1-5-2-7.3-2.9
	c-15.9-6.5-25.5-10.4-29.9-7.1c-2,1.5-2.7,4.3-2.2,8.8C327.3,314.8,339.8,333.5,358,342.3z M329.4,297.7c0.8-0.6,1.9-0.9,3.3-0.9
	c4.9,0,13.5,3.5,25.1,8.2c2.3,0.9,4.7,1.9,7.3,2.9c14,5.6,24.2,3.9,30.2,1.5c6.1-2.4,9.4-6,9.9-6.6c12.2-8.1,17.5-7.6,19.6-6.5
	c1.6,0.8,2.5,2.5,2.6,4.9c0.4,9.6-10.6,27-27.7,37.7c-16.4,10.2-31.3,6.8-40.9,2.1c-17.5-8.5-30-26.9-30.9-35.8
	C327.3,301.3,327.9,298.8,329.4,297.7z"/>
<path class="st0" d="M364,334.2c3.5,1.8,8.1,3.5,13.4,3.5c3.7,0,7.6-0.8,11.8-2.9c9-4.5,14.5-11.7,14.8-16c0.1-1.8-0.7-2.7-1.5-3.2
	c-2.1-1.3-6.1-0.5-11.6,2.5l-0.2,0.1c-0.1,0.1-6.3,6.1-19.3,1.9c-1.3-0.4-2.5-0.8-3.7-1.2c-8.8-2.9-13.7-4.5-15.8-2.6
	c-0.9,0.8-1.2,2-1,3.8C351.3,323.7,356.5,330.2,364,334.2z M352.8,317.4c0.4-0.3,0.9-0.4,1.7-0.4c2.5,0,7,1.5,12.7,3.4
	c1.2,0.4,2.4,0.8,3.7,1.2c13.2,4.3,19.9-1.4,20.8-2.2c6.8-3.6,9.3-3,10-2.5c0.5,0.3,0.8,1,0.8,1.8c-0.2,3.8-5.6,10.5-13.9,14.7
	c-9.6,4.8-18.2,2.3-23.8-0.6c-7.5-4-12-10.1-12.4-13C352.1,318.6,352.3,317.8,352.8,317.4z"/>
<path class="st0" d="M342.6,364.7c-7.6-3.5-17.9-8.3-23.8-17.4c-0.8-1.3-2.3-1.9-3.8-1.7c-1.5,0.2-2.7,1.3-3.1,2.8
	c-2.4,8.9-7.8,34.7-4,38.7c0.4,0.4,0.9,0.7,1.4,0.7c0.1,0,0.3,0,0.4,0c1-0.2,2.5-0.4,4.5-0.7c12.5-1.8,35.7-5.2,38.7-12.7
	C354.6,370.3,349.6,367.9,342.6,364.7z M351.6,373.8c-2.7,6.7-27.1,10.3-37.5,11.8c-2,0.3-3.5,0.5-4.6,0.7c-0.2,0-0.3,0-0.5-0.2
	c-2.6-2.8,0.9-24.3,4.4-37.3c0.3-1.1,1.2-1.6,1.9-1.7c0.1,0,0.3,0,0.4,0c0.8,0,1.5,0.4,1.9,1c6.1,9.5,16.7,14.4,24.4,17.9
	C348.8,369.2,352.6,371.2,351.6,373.8z"/>
<path class="st0" d="M331.3,368.7c-3.5-1.6-8.3-3.8-11-8c-0.5-0.7-1.3-1.1-2.2-1c-0.9,0.1-1.6,0.7-1.8,1.6c0,0.2-4.1,16-1.8,18.5
	c0.3,0.3,0.6,0.4,1,0.4c0.1,0,0.2,0,0.3,0c0.5-0.1,1.2-0.2,2.1-0.3c8.8-1.3,17.1-2.9,18.4-6.2C337.3,371.4,334.6,370.2,331.3,368.7z
	 M334.9,373.1c-1.2,2.9-12.9,4.6-17.3,5.3c-0.9,0.1-1.6,0.2-2.1,0.3c-0.8-1.2,0.3-9.8,2.2-17c0.1-0.4,0.5-0.5,0.6-0.5h0.1
	c0.2,0,0.4,0,0.6,0.3c2.9,4.5,7.9,6.8,11.6,8.5C333.6,371.4,335.3,372.3,334.9,373.1z"/>
<path class="st0" d="M306.7,165.6c-9-17.6-18.5-26.1-28.2-25.5s-19.1,10.9-25.1,27.6c-8.9,24.7-20.9,36.7-53.6,53.6
	c-19.3,9.9-12.2,26.6-6,41.3c4.6,10.9,8.6,20.3,0.9,24.7c-14.3,8.3-12.6,13.8-7,32.1c2.2,7.1,4.9,15.9,7.6,27.7
	c9.5,40.9-2,61.9-2.9,63.4c-1.8,1.7-33.1,31.7-49.2,43.9c-15.8,12-16.8,17-22.9,44.7c-0.4,2-0.9,4.2-1.4,6.4c-0.9,4.3-0.6,6.6,1,7.5
	c0.4,0.2,0.8,0.3,1.3,0.3c6,0,20.8-15.1,45.4-40.6c21.3-22.2,45.5-47.3,64.2-60.5c46.6-32.8,14.9-108,2.9-136.2
	c-7.4-17.5-2.2-42.9,11.5-56.5c10-9.9,23-12.2,36.5-6.4c54.6,23.6,112.7,7.2,177.5-15c12.8-4.4,22.9-3.8,30.1,1.8
	c18.4,14.3,14.8,58.5,12.2,90.8c-0.5,6.4-1,12.4-1.3,17.6c-0.7,14.5,3.8,25.3,12,29c4.8,2.1,10,1.4,13.3-1.9c3.5-3.5,4-8.8,1.5-14.7
	c-8-18.2-0.6-54.8,22-108.7c3.6-8.5,4-15.6,1.2-21.8c-5.1-11.6-20.9-17.2-34.7-22.2c-12.9-4.6-25-8.9-25.8-17.1
	c-0.4-4.2-2.2-7.1-5.3-8.5c-14.8-6.7-55.2,20.8-71.9,33c-22.6,16.4-49.9,23.4-71.3,18.3C326,190,314.3,180.5,306.7,165.6z
	 M413.4,176.5c34.3-25,60.6-37.2,70.4-32.8c2.7,1.2,4.1,3.6,4.4,7.3c0.8,9.1,13.4,13.6,26.8,18.3c13.6,4.8,29,10.3,33.9,21.4
	c2.5,5.8,2.1,12.5-1.3,20.6c-22.7,54.4-30.1,91.4-22,109.9c2.3,5.3,1.9,10-1.2,13c-2.9,2.8-7.4,3.5-11.6,1.6
	c-7.7-3.4-11.8-13.7-11.1-27.6c0.3-5.1,0.7-11.1,1.3-17.5c2.7-32.6,6.3-77.2-12.8-92.1c-7.6-5.9-18.1-6.5-31.5-2
	c-64.5,22.1-122.4,38.4-176.5,15c-14.1-6.1-27.6-3.7-38.1,6.7c-14.2,14-19.5,40.1-11.9,58.1c11.8,28,43.2,102.3-2.4,134.4
	c-18.8,13.2-43,38.4-64.4,60.6c-19,19.8-38.7,40.2-44.1,40.2c-0.3,0-0.5-0.1-0.7-0.2c-0.4-0.2-1.3-1.2-0.2-5.9
	c0.5-2.3,1-4.4,1.4-6.4c5.9-27.3,7-32.2,22.3-43.8c16.5-12.5,49.1-43.7,49.4-44.1l0.1-0.1c0.5-0.9,13-21.8,3.1-64.6
	c-2.8-11.8-5.5-20.7-7.6-27.8c-5.6-18.4-7-22.7,6.3-30.4c8.8-5.1,4.4-15.6-0.3-26.6c-6-14.1-12.8-30.1,5.3-39.4
	c33.1-17.1,45.3-29.3,54.4-54.4c5.8-16.1,14.7-26,23.8-26.6c0.3,0,0.6,0,0.8,0c8.7,0,17.7,8.5,26,24.7c7.9,15.4,19.8,25.1,35.6,28.8
	C362.7,200.3,390.5,193.2,413.4,176.5z"/>
<path class="st0" d="M222,297.4c-1.2-0.7-2.5-0.9-3.8-0.5c-0.7,0-4.4,0.3-7,3.1c-2,2.2-2.9,5.4-2.6,9.4c0.2,2.3,0.2,7.2,0.1,13.4
	c-0.1,30.1,0.5,62.7,8.5,68c0.8,0.5,1.6,0.8,2.4,0.8c0.7,0,1.4-0.2,2.1-0.5c17.6-7.8,24.3-20.5,19.8-37.8c-0.8-3.2-1.8-7.1-2.7-11.2
	C234.5,323.9,229.2,301.5,222,297.4z M240.1,353.6c4.4,16.7-1.8,28.5-18.9,36c-1.2,0.5-2.2,0.5-3.2-0.1c-8-5.2-7.9-45.2-7.8-66.7
	c0-6.2,0-11.1-0.1-13.5c-0.3-3.6,0.5-6.3,2.2-8.2c2.4-2.6,6-2.7,6-2.7h0.2c0.3-0.1,0.6-0.1,0.9-0.1c0.6,0,1.2,0.2,1.8,0.5
	c6.7,3.8,12.1,26.8,16.1,43.6C238.3,346.4,239.2,350.3,240.1,353.6z"/>
<path class="st0" d="M369,508.5c-1.4-0.2-2.6,1.6-5.4,6c-7.1,11-23.6,36.8-60.8,47.2c-0.6,0.2-61.6,17.3-60.3,26.1
	c0.3,2,2.8,4.2,19.5,3.8c13.1-0.3,24.1-1.4,34.7-2.5c28.9-2.9,51.8-5.2,97,11.9c30,11.4,51.2,17.3,61.8,17.3c3.8,0,6.3-0.8,7.2-2.3
	c1.4-2.2-0.3-5.6-5-9.9c-2-1.8-4.7-4.3-8.2-7.5c-22.2-20.1-74.1-67-79-88.1C370.4,510,370.1,508.6,369,508.5z M448.5,599.7
	c3.5,3.2,6.3,5.7,8.2,7.5c3.9,3.7,5.6,6.6,4.7,8.1c-2.4,3.9-21.3,1.8-67.2-15.6c-29-11-48.9-14.1-67-14.1c-10.3,0-20.1,1-30.7,2.1
	s-21.5,2.2-34.6,2.4c-16.3,0.3-17.9-1.9-18-2.6c-0.5-3.7,23.1-14.4,59.2-24.5l-0.2-0.7l0.2,0.7c37.8-10.6,54.5-36.7,61.7-47.8
	c1.6-2.4,3.2-4.9,3.9-5.3c0.1,0.1,0.2,0.3,0.3,0.8C374.1,532.4,424.4,577.9,448.5,599.7z"/>
<path class="st0" d="M284.5,421c-1.1-0.7-2.9-1.1-5,1.4c-1.1,1-23.2,20.5-44,42.1c-28.7,29.9-41.5,49.5-37.8,58.4
	c1.4,3.5,5.4,5.3,11.8,5.3c0.7,0,1.4,0,2.1-0.1c14.5-0.8,26.3-1,35.7-1.2c26-0.5,35.7-0.7,41.4-11.7c3.7-7.1,4.7-30.6,4.1-49.5
	C292.5,456.3,291.1,425.3,284.5,421z M287.3,514.6c-5.3,10.2-14.8,10.4-40.1,10.9c-9.5,0.2-21.2,0.4-35.8,1.2
	c-6.9,0.4-11.1-1.1-12.5-4.3c-3.3-8.1,9.7-27.8,37.5-56.8c21.2-22.1,43.7-41.9,44-42.1l0.1-0.1c1-1.2,1.7-1.5,2.2-1.5
	c0.4,0,0.7,0.2,0.9,0.3c3.9,2.6,6.9,19.7,7.6,43.6C292,488.3,290.3,508.8,287.3,514.6z"/>
<path class="st0" d="M273.8,446.2c-0.7-0.4-2-0.9-3.5,0.9c-2.9,2.5-57.6,50.8-52.1,64.2c1,2.4,3.6,3.6,7.8,3.6c0.4,0,0.9,0,1.4,0
	c9.2-0.5,16.7-0.7,22.7-0.8c16.6-0.3,22.9-0.4,26.6-7.6C280.9,497.9,280.1,450.4,273.8,446.2z M275.2,505.8
	c-3.3,6.3-8.8,6.4-25.3,6.8c-6,0.1-13.5,0.3-22.8,0.8c-4.3,0.2-6.9-0.6-7.7-2.6c-4.2-10.3,35.9-48.7,51.7-62.5l0.1-0.1
	c0.6-0.7,0.9-0.8,1.2-0.8c0.2,0,0.3,0.1,0.4,0.1C277.9,450.7,279.7,497.1,275.2,505.8z"/>
<path class="st0" d="M263.9,469.6c-0.3-0.2-1.1-0.6-2.1,0.5c-2.8,2.5-25.6,22.7-23.1,28.8c0.5,1.2,1.8,1.8,3.8,1.8
	c0.2,0,0.4,0,0.6,0c4.1-0.2,7.4-0.3,10-0.3c7.3-0.1,10.3-0.2,12.1-3.6C267.1,493.1,267.1,471.7,263.9,469.6z M263.9,496
	c-1.3,2.5-3.3,2.6-10.8,2.8c-2.7,0.1-6,0.1-10.1,0.3c-1.2,0.1-2.6,0-3-0.9c-1.6-3.9,13.1-18.7,22.7-27.1l0.1-0.1
	c0.1-0.1,0.2-0.2,0.2-0.2C264.8,472,266,491.9,263.9,496z"/>
<path class="st0" d="M201.8,592.5c-5.9-0.1-11.7,0-17.3,0c-20.3,0.3-37.9,0.5-46.4-7.9c-3.9-3.8-5.7-9.2-5.7-16.6
	c0-18.8-6.8-34.7-15.5-36.2c-6.6-1.1-12.9,5.9-18,19.9v0.1c0,0.2-3.2,15.4-0.7,33.5c2.3,16.7,10,39.2,33.7,51.7
	c15,7.9,28.7,10.9,40.8,10.9c21.6,0,37.8-9.7,45.8-18.2c7.1-7.5,12.7-18.6,9.4-26.6C224.8,596.4,216.1,592.8,201.8,592.5z
	 M217.3,628.8c-12.1,12.8-43.6,28.7-84.7,6.9c-43.8-23.1-32.7-81.5-32.3-83.5c4.8-13.2,10.6-19.9,16.3-18.9
	c7.9,1.4,14.2,17,14.2,34.7c0,7.8,2,13.6,6.2,17.7c9,8.9,26.8,8.6,47.5,8.4c5.6-0.1,11.4-0.1,17.3,0c13.7,0.2,21.9,3.5,24.6,9.8
	C229.4,611.2,224,621.7,217.3,628.8z"/>
<path class="st0" d="M186.5,608c-7.1-2.5-16.2-4.1-23.7-4.1c-15.2,0-27.5,6.8-27.5,15.2s12.4,15.2,27.5,15.2
	c14.4,0,36.6-6.7,36.6-15.5C199.4,614.7,194.8,610.9,186.5,608z M162.8,632.7c-14.4,0-26-6.1-26-13.7s11.7-13.7,26-13.7
	c18.6,0,35.1,7.5,35.1,13.3C197.9,625.8,177.8,632.7,162.8,632.7z"/>
<path class="st0" d="M1262.4,936c-21.9-30.2-58.9-30.8-59.5-30.8l0,0c-0.2,0-17.9,1.7-32.9-11.9c-14.5-13.2-21.7-35.9-21.3-67.3
	c0.3-29.3,5.6-60.1,10.6-89.8c9.5-55.9,17.7-104.2-15.2-110.9c-25.7-5.3-35.3,20-45.5,46.7c-9.4,24.7-19.2,50.3-42.7,51.3
	c-20.5,0.8-32.4,24.4-45,49.3c-9,17.9-18.4,36.5-31.6,48.3c-14.9,13.3-32.6,15.7-54.2,7.4c-44.8-17.3-75.2-56.5-97.4-85.2
	c-19-24.6-32.8-42.3-45.3-32.7c-9.9,7.6-9.7,30-9.4,55.9c0.5,43.5,1,97.6-46.3,107c-31.4,6.2-48.7,17-56.1,34.9
	c-6.9,16.7-4.8,38.1-2.1,65.3c0.8,8.2,1.6,16.6,2.3,25.6c0,0.3,0,0.6,0.1,0.9h1.5c0-0.4,0-0.7-0.1-1.1c-0.7-9-1.5-17.5-2.3-25.7
	c-5.2-53.4-8.4-85.6,57-98.6c48.5-9.6,47.9-64.4,47.5-108.4c-0.3-25.5-0.5-47.5,8.8-54.7c11.3-8.7,24.7,8.6,43.2,32.4
	c22.3,28.8,52.9,68.2,98.1,85.7c8.9,3.4,16.8,4.9,23.9,4.9c32.8,0,49.1-32.3,63.7-61.4c12.4-24.5,24-47.7,43.7-48.5
	c24.4-1,34.4-27,44-52.2c10-26.1,19.4-50.8,43.8-45.8c31.6,6.4,23.4,54.1,14.1,109.2c-5.1,29.8-10.3,60.6-10.7,90.1
	c-0.4,31.9,7,55,21.8,68.5c15.5,14.1,33.8,12.3,33.9,12.3c0.4,0,36.7,0.5,58.2,30.2c11.6,15.9,16.9,37,15.9,63h1.5
	C1279.6,973.6,1274.2,952.2,1262.4,936z"/>
<path class="st0" d="M1129.1,791.6c2.5-33.8,7-65.1,10.6-90.3c4.8-33.5,6.8-48.4,2.8-49.7c-2.6-0.8-6.8,3.4-19.4,27v0.1
	c-0.3,0.7-30,69-48.7,71.6c-6.7,0.9-21,9.9-36.3,23c-12.4,10.6-27.1,25.4-31,35.2c-1.4,3.5-1.3,6.2,0.1,8c2,2.5,6.4,3.1,13.5,2
	c5.7-0.9,11-1.9,16.1-2.9c19.5-3.7,33.7-6.4,42.3,0.9c7.2,6.1,10.4,18.8,10.1,41.3c-0.5,41.7,25.4,63.6,36.5,71
	c10.4,6.9,21.6,10.9,30.1,10.9c2.7,0,5.1-0.4,7.1-1.3c1.8-0.8,2.9-1.8,3.4-3.3c1.3-4-2.2-10.2-7.6-19.7
	C1146.5,894.2,1124.5,855.2,1129.1,791.6z M1164.6,934.5c-0.4,1-1.2,1.8-2.6,2.4c-7.8,3.3-22.5-0.6-35.8-9.5
	c-10.9-7.3-36.3-28.8-35.8-69.8c0.3-23-3-36.1-10.6-42.4c-4.3-3.6-9.7-4.9-16.3-4.9c-7.5,0-16.6,1.7-27.2,3.7c-5.1,1-10.4,2-16,2.9
	c-6.3,1-10.5,0.5-12-1.5c-1.1-1.4-1.1-3.5,0.1-6.5c7.2-18,52.4-55.4,66.2-57.3c19.5-2.7,48.5-69.2,49.9-72.4
	c12-22.5,16.2-26.7,17.6-26.2c3,1-0.3,23.9-3.8,48.1c-3.6,25.2-8.1,56.6-10.6,90.4c-4.7,64,17.6,103.3,29.5,124.4
	C1162.1,924.8,1165.7,931.2,1164.6,934.5z"/>
<path class="st0" d="M1219.1,921.5c-12.4-2.2-23.9,3.1-28.8,13.1c-10.1,20.9-19.7,31.6-30.4,33.8c-16,3.2-34.8-13.2-58.4-34
	c-7.4-6.5-13.3-8.5-17.5-6c-11.7,6.8-7.2,47-3.2,71.6h1.5c-1.1-6.7-2.2-14.5-3-22.5c-2.9-27.5-1-44.1,5.5-47.8
	c3.6-2.1,8.9-0.1,15.8,5.9c21.9,19.3,39.6,34.8,55.3,34.8c1.5,0,3-0.1,4.5-0.4c11.2-2.3,21.1-13.3,31.4-34.6
	c4.5-9.4,15.4-14.3,27.2-12.2c18.4,3.3,26.5,20.2,27.9,35c1.2,12.6,1.8,27.4,1.9,41.9h1.5c-0.2-14.5-0.7-29.4-2-42.1
	C1246,934.5,1231.7,923.7,1219.1,921.5z"/>
<path class="st0" d="M1046.7,881.2c5.1-13.3,4.9-22.8-0.6-28.4c-12.2-12.2-47.7-2.2-75.4,8.4c-22.2,8.5-48.8,6.2-74.9-6.6
	c-25.3-12.4-47.2-33.5-60.2-58.1c-7.4-14.1-13.8-20.2-19.5-18.7c-12.9,3.3-16.7,47.9-16,85.1c0.4,21.5-2.7,34.3-10.1,41.6
	c-10.3,10.1-29.7,10.2-60.5,9c-7.9-0.3-13.8,2.3-17.3,7.7c-6.7,10.2-5.4,30.2,3.9,59.4c2.2,6.9,4.6,13.5,6.9,19.4h1.6
	c-9.4-24-21.5-62.2-11.2-77.9c3.2-4.9,8.6-7.3,16-7c31,1.2,50.6,1.3,61.6-9.4c7.8-7.7,10.9-20.4,10.5-42.7
	c-0.4-20.5,0.6-40,2.8-54.8c2.6-17.5,6.8-27.4,12-28.8c4.7-1.2,10.9,5,17.8,18c13.1,24.8,35.3,46.2,60.8,58.7
	c26.4,13,53.5,15.3,76.1,6.7c49.3-18.9,67.3-15.2,73.8-8.7c5.1,5.1,5.2,14.1,0.3,26.8c-11.9,30.8-3.2,87.8,3.1,119.3h1.5
	C1043.6,968.7,1034.9,911.7,1046.7,881.2z"/>
<path class="st0" d="M1008,919.2c5.7-15.6,5.8-25.8,0.4-31.1c-8.5-8.4-28.7-2.2-45.4,4.1c-15.3,5.8-33.3,7.6-49.6,4.8
	c-13.7-2.3-32.7-9-45.5-27.8c-9.4-13.8-17.7-19.8-24.3-17.5c-8.4,3-12.1,19.9-9.8,45.3c3.5,39-11.3,44.2-47.1,56.8
	c-4,1.4-8.1,2.8-12.4,4.4c-10,3.7-15.5,8.8-16.1,15.3c-0.9,8.9,7.5,18.7,16.2,26.4h2.4c-8.9-7.6-17.9-17.6-17-26.3
	c0.6-5.9,5.7-10.6,15.1-14c4.4-1.6,8.5-3,12.4-4.4c35.5-12.5,51.7-18.2,48.1-58.4c-2.2-24.2,1.2-41,8.8-43.7c5.7-2,13.7,4,22.5,16.9
	c13.1,19.2,32.5,26.1,46.5,28.5c16.5,2.8,34.9,1,50.4-4.9c15-5.7,35.8-12.4,43.8-4.5c4.9,4.8,4.6,14.7-0.7,29.5
	c-9.1,25-10.8,56.1-8.3,81.3h1.4C997.2,975,999,944,1008,919.2z"/>
<path class="st0" d="M1114.9,826.8c1.2-15.6,2.7-31,4-44.6c3.7-38.6,5.3-57.2,0.9-58.9c-1.8-0.7-3.7,1.6-5,3.4
	c-5.4,7.6-8.2,15-10.6,21.5c-3.1,8.2-5.5,14.6-12,17.7c-8.1,3.4-48,20.9-46.8,28c0.4,2.2,3.7,2.7,6.2,2.8c3.2,0.2,6.3,0.3,9.3,0.4
	c19.7,0.8,34,1.3,35.5,23c2.1,29.5,6.1,62.3,26,78.3l0.7,0.6c4.2,3.3,5.5,4.4,6.2,4.4c0.2,0,0.4-0.1,0.6-0.2
	c0.7-0.6,0.3-1.4-1.3-4.7C1124.1,889.5,1112,865.1,1114.9,826.8z M1124.1,898l-0.7-0.6c-19.5-15.6-23.3-48.1-25.5-77.3
	c-1.7-23-17.2-23.7-37-24.4c-3-0.1-6.1-0.2-9.3-0.4c-4.1-0.3-4.7-1.2-4.8-1.6c-0.4-2.5,11.7-11.8,45.9-26.4l0,0
	c7.1-3.3,9.6-10,12.8-18.5c2.4-6.4,5.1-13.7,10.4-21.1c1.8-2.6,2.8-2.9,3.1-2.9c0.1,0,0.1,0,0.1,0c3.5,1.3,0.9,28.5-1.9,57.3
	c-1.3,13.6-2.8,29-4,44.6c-2.9,38.7,9.2,63.4,13.8,72.6c0.4,0.7,0.7,1.4,1,2C1127.3,900.6,1125.8,899.4,1124.1,898z"/>
<path class="st0" d="M969.7,939.1c1-4.1,0.6-7.2-1.2-9.3c-4.4-5-15.8-3.7-30.2-2.1c-21,2.3-47.1,5.2-60.2-11.2
	c-4.8-6-8.6-8.5-12.1-7.9c-5.9,1-9.2,10.9-13.4,23.3c-5.5,16.4-12.4,36.8-27.9,42.8c-8.7,3.4-13.2,7.6-13.3,12.4
	c-0.1,4.6,3.7,9.1,8.2,12.8h2.5c-4.9-3.6-9.3-8.2-9.1-12.7c0.1-4.2,4.3-8,12.4-11.1c16.2-6.3,23.1-27.1,28.7-43.8
	c3.9-11.5,7.2-21.4,12.2-22.3c2.9-0.5,6.4,1.9,10.7,7.3c13.6,17,40.1,14.1,61.5,11.7c13.5-1.5,25.1-2.8,29,1.6
	c1.5,1.7,1.8,4.3,0.9,8c-3,11.9-3.4,24-3.9,35.6c-0.4,9.4-0.7,18.1-2.4,25.6h1.5c1.6-7.5,2-16.1,2.3-25.5
	C966.3,962.8,966.8,950.9,969.7,939.1z"/>
<path class="st0" d="M1219.1,954c-1.7-3-3.4-4.4-5.3-4.6c-3.2-0.3-6.2,3.2-10.8,8.5c-5.9,6.9-14,16.3-27.5,23.8
	c-19.3,10.8-26.3,6.6-39.2-1.1c-6.5-3.9-14.5-8.7-26.2-12.9c-7.1-2.5-12-2.3-14.5,0.7c-3.4,4.2-2,13.6,4.3,27.9
	c0.5,1.2,1.1,2.4,1.7,3.6h1.7c-0.7-1.4-1.3-2.8-1.9-4.2c-6-13.5-7.5-22.6-4.5-26.3c2-2.5,6.3-2.6,12.8-0.3
	c11.6,4.1,19.6,8.9,26,12.8c12.8,7.7,20.6,12.4,40.7,1.2c13.7-7.7,21.9-17.2,27.9-24.1c4.1-4.8,7.1-8.3,9.5-8
	c1.3,0.1,2.7,1.4,4.1,3.9c4,6.9,5.4,26.1,4.9,45.1h1.6C1224.9,980.6,1223.4,961.3,1219.1,954z"/>
<path class="st0" d="M932.2,961.7c-2.5-2.7-7.8-2.3-13.8-1.7c-7.6,0.7-17.1,1.6-23.9-3.8c-2.9-2.3-5.4-3.2-7.5-2.6
	c-3.6,1-5.5,5.8-7.7,11.5c-2.8,7.2-6.3,16.2-14.3,19.5c-4.6,1.9-7,4.4-7.1,7.3c-0.1,2.9,2,5.7,4.6,8.1h2.3c-3-2.4-5.5-5.3-5.4-8
	c0.1-2.3,2.2-4.3,6.2-6c8.6-3.6,12.3-12.9,15.2-20.4c2.1-5.3,3.8-9.8,6.7-10.6c1.6-0.4,3.6,0.3,6.2,2.4c7.3,5.8,17.1,4.9,25,4.2
	c5.7-0.5,10.5-1,12.6,1.2c1.1,1.2,1.4,3.3,0.9,6.3c-1.9,10.9-5.4,22.8-9.5,30.8h1.7c4.1-8.1,7.4-19.6,9.4-30.6
	C934.1,965.8,933.7,963.3,932.2,961.7z"/>
<path class="st0" d="M1275.1,613c-14.8,2-22.7,16.3-24,29.5c-12.2,124.4,7.5,158.8,26.1,165.8c2.8,1,5.5,1.6,8.1,1.6
	c5.5,0,10.5-2.3,15-6.9c11.6-11.7,18.6-37.5,19.4-70.7c0.8-34-5.5-70.6-17.1-100.3C1296.4,616.1,1284.3,611.8,1275.1,613z
	 M1318.2,732.2c-0.7,32.3-7.8,58.4-19,69.7c-6.2,6.3-13.4,8-21.5,5c-14.9-5.6-24.1-26.6-27.5-62.5c-2.5-26.7-1.7-60.9,2.3-101.8
	c1.2-12.6,8.7-26.2,22.7-28.1c1-0.1,2-0.2,3-0.2c9.8,0,18.4,6.7,22.9,18.2C1312.8,662,1318.9,698.4,1318.2,732.2z"/>
<path class="st0" d="M1278.4,651.6c-9.1,1.3-14,10-14.8,18.1c-4.1,41.6-4.6,92.9,16,100.6c1.7,0.6,3.3,0.9,4.9,0.9
	c3.4,0,6.6-1.4,9.3-4.2c13.6-13.8,17.3-63.2,1.5-103.7C1291.5,653.4,1284.1,650.8,1278.4,651.6z M1292.8,765.9
	c-3.7,3.7-7.9,4.7-12.7,2.9c-20.8-7.8-18.3-65.4-15-99c0.7-7.5,5.2-15.6,13.5-16.7c0.6-0.1,1.2-0.1,1.8-0.1c5.8,0,10.9,4,13.6,10.8
	l0,0C1309.6,703.8,1306.2,752.4,1292.8,765.9z"/>
<path class="st0" d="M1281.3,685.5c-3,0.4-6.1,3.1-6.6,8.1c-1.7,17.8-1.9,39.8,7.1,43.1c0.8,0.3,1.5,0.4,2.3,0.4
	c1.6,0,3-0.6,4.3-1.9c6.5-6.6,6.9-28.7,0.7-44.5C1287.3,686.4,1283.9,685.2,1281.3,685.5z M1287.2,734.2c-1.4,1.5-3.1,1.8-4.9,1.1
	c-6.3-2.4-8.5-17.1-6.1-41.6c0.4-4.2,3-6.4,5.4-6.7c0.2,0,0.5,0,0.7,0c2.3,0,4.3,1.6,5.4,4.3C1292.9,705,1293.8,727.5,1287.2,734.2z
	"/>
<path class="st0" d="M1243.3,501.2c-1.3-6.2-6-11.6-14.5-16.4l0,0c-0.2-0.1-17.5-8.8-37.4-14.4c-26.8-7.5-45.2-6-54.5,4.6
	c-27.6,31.3-58.5,43.1-76.8,40.8c-6.8-0.8-13.7-4.7-20.4-8.4c-9.8-5.4-19-10.5-27.8-7c-7.5,2.9-13.5,11.9-18.6,27.4
	c-3.3,10.2-7.6,21.6-11.7,32.6c-13.5,36.3-26.2,70.5-15.8,80.3c1.9,1.8,4.4,2.7,7.7,2.7c4,0,9.1-1.4,15.3-4.1
	c51.9-23,64.6-31.2,80.9-66.4c2.6-5.7,4.8-11,6.8-16.1c10.4-25.6,16.6-41.1,57.9-34.5c20.5,3.3,36.5,10.7,49.3,16.7
	c18.8,8.7,31.2,14.5,41.9,0.5C1237,524.4,1245.5,512.1,1243.3,501.2z M1224.4,538.4c-9.9,13-21.9,7.5-40.1-1
	c-12.9-6-29-13.5-49.7-16.8c-42.4-6.8-49.2,10-59.5,35.4c-2.1,5.1-4.2,10.4-6.8,16c-16.1,34.7-28.7,42.9-80.1,65.6
	c-10.5,4.6-17.7,5.2-21.4,1.7c-9.7-9.1,3.5-44.5,16.2-78.7c4.1-11,8.3-22.4,11.7-32.6c4.9-15.1,10.7-23.7,17.7-26.5
	c1.8-0.7,3.6-1,5.5-1c6.6,0,13.7,3.9,21.1,8c6.8,3.8,13.9,7.7,20.9,8.5c26,3.3,58-18.4,78.2-41.2c21.2-24.2,88.7,9.5,90.1,10.2
	c8.1,4.6,12.5,9.6,13.7,15.4C1243.9,511.7,1235.6,523.8,1224.4,538.4z"/>
<path class="st0" d="M1060.4,529.8L1060.4,529.8c-1.1-0.7-27-17.3-41.4-13c-3.6,1.1-6.2,3.3-7.7,6.8c-1.5,3.3-4.1,8.5-7.4,15.1
	c-13.5,27-36.2,72.2-28.5,81.3c1,1.2,2.4,1.7,4.2,1.7c1.1,0,2.3-0.2,3.6-0.6c11.4-3.5,30.8-16.2,48.2-31.5
	c19.9-17.5,32.4-34.2,34.3-45.8C1066.7,537.8,1064.9,533,1060.4,529.8z M1064.2,543.5c-4.2,25.6-59.8,69.5-81.4,76.1
	c-3,0.9-5,0.7-6.2-0.7c-7.1-8.4,16.2-54.8,28.7-79.7c3.3-6.6,5.9-11.8,7.4-15.1c1.3-3,3.6-5,6.8-5.9c1.5-0.4,3.1-0.6,4.9-0.6
	c14.1,0,34.5,13,35.2,13.4C1063.5,533.9,1065.1,538.1,1064.2,543.5z"/>
<path class="st0" d="M1039,550.4L1039,550.4c-0.5-0.4-12.7-8.2-19.6-6.1c-1.8,0.5-3.1,1.7-3.9,3.4c-0.7,1.5-1.9,3.9-3.4,7
	c-8.6,17.1-16.7,34.2-13.2,38.3c0.5,0.6,1.3,1,2.2,1c0.5,0,1.1-0.1,1.8-0.3c5.4-1.7,14.4-7.6,22.6-14.8c4.4-3.9,14.8-13.8,16.1-21.6
	C1042.1,554.3,1041.2,552,1039,550.4z M1040.1,557c-2,11.8-27.6,32.1-37.6,35.1c-1.2,0.4-2,0.3-2.5-0.2c-3.1-3.7,8-26,13.4-36.7
	c1.5-3.1,2.8-5.5,3.5-7.1c0.6-1.3,1.5-2.1,2.9-2.5c0.7-0.2,1.4-0.3,2.2-0.3c6.4,0,15.7,5.9,16.2,6.2
	C1039.9,552.9,1040.5,554.6,1040.1,557z"/>
<path class="st0" d="M1027.2,561.7L1027.2,561.7c-0.5-0.3-4.9-3.1-7.6-2.3c-0.8,0.2-1.4,0.8-1.7,1.5c-0.2,0.6-0.7,1.5-1.3,2.6
	c-4.1,8.3-6.1,13-4.8,14.6c0.2,0.3,0.6,0.5,1.2,0.5c0.2,0,0.5,0,0.8-0.1c4-1.2,13.8-9,14.6-13.8
	C1028.6,563.4,1028.2,562.4,1027.2,561.7z M1026.9,564.5c-0.6,3.9-9.6,11.4-13.5,12.6c-0.3,0.1-0.4,0.1-0.4,0.1
	c-0.6-0.8,1.1-5.2,5-13c0.6-1.1,1-2,1.3-2.6c0.2-0.4,0.4-0.6,0.8-0.7c0.2-0.1,0.4-0.1,0.7-0.1c1.8,0,4.6,1.5,5.7,2.2
	C1026.8,563.3,1027,563.8,1026.9,564.5z"/>
<path class="st0" d="M912.1,700.8c-25.5-16.6-42.4-74.2-60.4-142.1c-3.8-14.3-11.1-24.1-21.7-29.3c-27.9-13.6-74.4,6.5-111.8,22.6
	c-12.2,5.3-23.8,10.3-33.4,13.5c-44.9,15.2-73.9,60.1-79.5,123.3c-3.6,39.9-18.6,59.7-36,82.6c-7.1,9.4-14.5,19.1-21.9,31
	c-25.9,41.8,0.2,65.1,27.8,89.7l1.4,1.2c3.2,2.8,5.5,4.2,7.2,4.2c0.5,0,0.9-0.1,1.3-0.3c3.2-1.5,3-8.5,2.6-19.1
	c-0.9-23.8-2.3-63.8,39.4-68.6c39.1-4.5,43.7-42.6,49.5-90.9c4.6-38.3,9.8-81.8,33.1-120.5c11.2-18.6,24.2-28.1,38.6-28.4
	c0.2,0,0.4,0,0.6,0c39.3,0,83,66.8,111.9,111.1c4.9,7.4,9.4,14.4,13.5,20.4c14.8,21.6,27.4,29.7,37.4,23.9c4.2-2.4,6.8-6.8,6.9-11.7
	C918.9,708.4,916.4,703.6,912.1,700.8z M911.1,723.9c-9.1,5.2-21.3-2.9-35.4-23.5c-4.1-5.9-8.6-12.9-13.5-20.3
	C833,635.6,789,568.4,748.9,568.4c-0.2,0-0.4,0-0.7,0c-15,0.3-28.4,10.1-39.9,29.1c-23.5,39-28.7,82.6-33.3,121.1
	c-5.7,47.6-10.2,85.2-48.1,89.6c-43.1,5-41.7,45.8-40.8,70.1c0.3,8.9,0.6,16.6-1.7,17.7c-0.9,0.4-2.7,0.1-6.9-3.6l-1.4-1.2
	c-27.1-24.2-52.7-47-27.5-87.8c7.4-11.9,14.7-21.6,21.8-30.9c17.5-23.1,32.7-43.1,36.3-83.4c5.6-62.6,34.2-107.1,78.5-122
	c9.6-3.3,21.2-8.3,33.5-13.6c28.6-12.3,62.6-27,89.1-27c7.9,0,15.2,1.3,21.4,4.3c10.3,5,17.3,14.5,21,28.3
	c18,68.2,35.1,126.1,61,143c3.9,2.5,6.1,6.8,6,11.4C917.1,717.9,914.8,721.8,911.1,723.9z"/>
<path class="st0" d="M923.4,641c-6.6,1.3-12.3,5.5-15.5,11.4s-3.5,12.9-0.9,19.1c9.4,22.4,17.4,34.2,23.7,35.1
	c0.3,0,0.5,0.1,0.8,0.1c1.8,0,3.4-0.9,4.8-2.7c7.9-9.9,20.4-41.5,11.4-56.1C943.5,641,935.3,638.7,923.4,641z M935.1,703.1
	c-1.3,1.6-2.6,2.3-4.2,2.1c-5.6-0.8-13.5-12.9-22.5-34.2c-2.4-5.8-2.1-12.3,0.8-17.8c3-5.6,8.2-9.5,14.4-10.7
	c11.2-2.2,18.9-0.1,22.7,6.2C955,662.8,942.8,693.4,935.1,703.1z"/>
<path class="st0" d="M925.6,656.9c-3.4,0.7-6.3,2.8-8,5.9c-1.6,3.1-1.8,6.6-0.5,9.8c4.7,11.3,8.8,17.2,12.1,17.7c0.1,0,0.3,0,0.4,0
	c0.8,0,1.8-0.3,2.7-1.5c2.2-2.8,4.7-8.2,6.1-13.2c1.3-4.6,2.2-11-0.3-15.2C936,657,931.8,655.7,925.6,656.9z M931.2,688
	c-0.7,0.9-1.3,0.9-1.7,0.9c-2.6-0.4-6.6-6.5-10.9-16.8c-1.2-2.8-1-5.9,0.4-8.5c1.4-2.7,4-4.5,6.9-5.1c5.4-1.1,9.1-0.1,10.9,2.9
	C941,668.1,934.9,683.3,931.2,688z"/>
<path class="st0" d="M667.6,599.8c-3.5-2-8.4,0.2-15.1,6.6l-0.1,0.1l-0.1,0.1c-0.2,0.4-20.2,44.7-34,100.1
	c-7.5,30.1-26.4,58.4-41.6,81.2c-13.2,19.8-22.7,34-19.3,41.3c2,4.2,3.1,5.7,4.6,5.8c0.1,0,0.1,0,0.2,0c1.6,0,2.9-1.9,5.2-5.2
	c3.8-5.5,10.3-14.8,24.1-24.3c10.7-7.4,20.1-9.9,27.6-11.8c13-3.4,21.5-5.7,24.7-28.7c1.2-8.6,5-24.9,9.5-43.6
	C665.2,670.4,680.2,607,667.6,599.8z M651.7,721c-4.4,18.8-8.3,35.1-9.5,43.8c-3.1,22-10.8,24.1-23.6,27.4c-7.6,2-17.1,4.5-28.1,12
	c-14.1,9.7-20.6,19.1-24.5,24.7c-1.8,2.5-3.2,4.5-4,4.5l0,0c-1.1-0.1-2.7-3.6-3.3-5c-3-6.5,6.8-21.2,19.2-39.8
	c15.3-22.9,34.3-51.3,41.8-81.7c13.4-53.8,32.7-97,33.9-99.7c6-5.7,10.5-7.9,13.2-6.3C678.5,607.7,662.4,675.9,651.7,721z"/>
<path class="st0" d="M807.4,542.9c-3.5-0.6-6.6,1-9,4.6c-4.1,6.2-3.9,14.6,0.5,20.9c8.4,12,24.7,35,39.7,55
	c24.5,32.7,29.8,36.3,31.6,36.3c0.3,0,0.5-0.1,0.6-0.2c1.2-0.6,0.9-2.4,0.5-3.9C867.1,639.5,830,546.6,807.4,542.9z M870.2,658.2
	c-4-0.2-31.4-35.6-70-90.6c-4.1-5.8-4.3-13.5-0.5-19.2c2.1-3.1,4.5-4.4,7.5-3.9c20.9,3.5,57.9,93.4,62.7,111.7
	C870.3,657.4,870.2,658,870.2,658.2z"/>
<path class="st0" d="M569.7,948.2c3.6-18,1.4-36.2-5.4-44.4c-9.5-11.4-42.5-6.2-80.8-0.1c-17,2.7-34.7,5.5-51.8,7.1
	c-23.2,2.2-40.6,19.9-50.3,51.2c-4.5,14.6-6.4,29-7.2,37.9h1.5c0.8-8.8,2.6-23.1,7.1-37.4c6.6-21.4,20.5-47.4,49-50.1
	c17.2-1.6,34.9-4.4,51.9-7.2c37.8-6,70.4-11.2,79.4-0.4c5.4,6.4,9.2,22.7,5.1,43.1c-2.6,12.9-10.1,34.7-31.4,52h2.3
	C559.8,982.5,567.1,961,569.7,948.2z"/>
<path class="st0" d="M528.9,923.8c-9.8-9.5-43.7,0.4-79.6,10.9c-4,1.2-7.9,2.3-11.9,3.5c-12.8,3.7-21.5,10.6-25.8,20.5
	c-6,13.9-2.1,30.9,1.5,41.2h1.6c-3.5-10-7.6-26.9-1.7-40.6c4.1-9.5,12.5-16.1,24.8-19.7c4-1.1,7.9-2.3,11.9-3.5
	c33.9-9.9,69-20.1,78.1-11.2c2.5,2.4,3,6,1.7,11.1c-4.4,17.2-19.6,44.8-30.9,63.9h1.7c11.3-19.1,26.2-46.4,30.6-63.5
	C532.5,930.8,531.8,926.6,528.9,923.8z"/>
<path class="st0" d="M471,961c-2.1-2.1-5.4-2.4-9.6-0.8c-17.5,6.7-20.8,26.9-21,39.7h1.5c0.2-12.4,3.4-31.9,20.1-38.3
	c3.6-1.4,6.3-1.3,8,0.4c3.6,3.6,3.1,14.4-1.4,31.2c-0.6,2.3-1.3,4.6-1.9,6.7h1.6C472.6,985.4,476.7,966.7,471,961z"/>
<path class="st0" d="M189.7,878.4c5.1,4.4,6.9,10.5,5.4,18.6c-6.8,36.8-28.3,75.9-45.6,102.9h5.9c17.2-27.2,37.9-65.6,44.6-102
	c1.8-9.8-0.6-17.7-7.1-23.3c-29.1-25.2-137.6,2.7-193,19.2v5.3c17.8-5.3,41.4-11.9,66-17.5C132,866.6,174.8,865.5,189.7,878.4z"/>
<path class="st0" d="M1218,504.3c-0.1-0.1-11.2-8.5-24-14.6c-17.4-8.4-29.6-8.8-36-1.2c-6.5,7.6-10.5,13.7-8.8,18.5
	c1.7,4.9,8.9,8.2,25.8,11.7c10.4,2.1,19.1,3,26.1,3c11.9,0,19-2.6,20.9-6C1223.5,512.7,1222.3,508.9,1218,504.3L1218,504.3z
	 M1220.6,514.9c-3.3,5.9-22.8,6.9-45.4,2.2c-16-3.3-23.2-6.4-24.6-10.7c-1.2-3.6,1.2-8.6,8.6-17.1c2.9-3.4,7.1-4.8,11.8-4.8
	c18.1,0,44.8,19.9,46.1,20.9C1220.7,509.4,1221.9,512.6,1220.6,514.9z"/>
<path class="st0" d="M1018.9,139.7c-18.4,39-17.1,68.8-15.6,103.2c0.2,5.2,0.5,10.6,0.8,16.4c1.7,31.4,3.9,70.4-6.2,91.9
	c-4.9,10.5-2,16.5,1.4,19.8c8.9,8.7,30.7,7.7,50.6-2.3c14.1-7,26.9,1.5,38.2,9.1c7.2,4.8,14,9.4,20.4,9.4c0.9,0,1.7-0.1,2.6-0.3
	c4-0.8,7.4-3.7,10.5-8.6c8.9-14.1,26-34.1,47.5-47.9c17.4-11.2,43.8-22,70.6-9.8c10.2,4.6,22.2,11.9,34.8,19.6
	c28.5,17.4,62.9,38.4,94.2,38.4c5,0,10-0.5,14.8-1.7c5.8-1.4,11.4-3.8,16.6-7.1v-1.7c-5.3,3.4-10.9,5.8-16.9,7.3
	c-34.2,8.4-75-16.5-107.8-36.5c-12.7-7.7-24.6-15-34.9-19.7c-21.7-9.9-46.6-6.4-72,9.9c-21.6,13.9-38.9,34.1-47.9,48.4
	c-2.9,4.6-6,7.2-9.6,7.9c-6.5,1.4-14-3.6-21.9-8.9c-11.6-7.8-24.8-16.6-39.7-9.2c-19.1,9.6-40.6,10.7-48.9,2.6
	c-4.3-4.2-4.6-10.4-1.1-18.1c10.3-21.8,8.1-61.1,6.3-92.6c-0.3-5.8-0.6-11.2-0.8-16.4c-1.5-34.3-2.8-63.8,15.5-102.5
	c18.9-40,19.4-84.3,16.4-114.4c-0.9-9.6-2.3-18.4-3.7-26.1h-1.5c1.4,7.7,2.8,16.6,3.7,26.2C1040.5,80.3,1029.2,117.8,1018.9,139.7z"
	/>
<path class="st0" d="M1051.3,132.6l-1.9,4.6c-18.8,46.1-18.8,46.1-19,72.5c0,4.6-0.1,9.8-0.2,16.2c-0.3,12.6-1.9,28.2-3.5,43.3
	c-3.4,32.2-6.6,62.5,2.2,68.3c2.4,1.6,5.6,1.2,9.4-1c17.4-10,34.9-18.7,44.8-14.3c4.1,1.8,6.7,5.7,8.1,11.8c1.7,8,4.1,12.1,7.3,12.9
	c0.4,0.1,0.8,0.1,1.2,0.1c5.5,0,12.7-8.8,23.1-21.6l1.7-2.1c11.6-14.2,41.6-37.6,72.8-40c16.2-1.2,30.4,3.5,42.2,14.1
	c13.8,12.5,35.1,24,58.4,31.6c24.5,8,48.6,11,68.1,8.4c14.5-1.9,25.9-6.7,34-14.3V321c-7.9,7.9-19.4,12.9-34.2,14.9
	c-42.4,5.6-99-16-125.3-39.6c-12.1-10.8-26.6-15.7-43.3-14.4c-31.6,2.4-62,26.1-73.8,40.5l-1.7,2.1c-10.5,12.8-18,22.1-22.8,20.9
	c-2.6-0.6-4.6-4.5-6.2-11.7c-1.4-6.6-4.4-10.9-8.9-12.9c-6.2-2.8-16.2-2.9-46.2,14.4c-3.4,1.9-5.9,2.3-7.9,1
	c-8-5.2-4.7-36.6-1.5-66.9c1.6-15.1,3.2-30.8,3.5-43.5c0.1-6.4,0.2-11.6,0.2-16.2c0.2-26.1,0.2-26.1,18.9-71.9l1.9-4.6
	c12.5-30.6,13.2-70.8,11.6-99.1c-0.7-13.1-2-24.9-3.2-34.1h-1.5c1.2,9.3,2.5,21.1,3.2,34.2C1064.4,62.3,1063.6,102.3,1051.3,132.6z"
	/>
<path class="st0" d="M1099.8,209.2c-7.3,25.5-12.5,43.9-4.5,51.7c5.4,5.3,16.7,5,35.5-0.9c16.1-5.1,30.7-11,44.8-16.7
	c44.7-18.1,80-32.5,116.5,4.1c16.1,16.1,39.8,30.2,65.1,38.5c15,5,29.6,7.6,42.9,7.8v-1.5c-13.2-0.2-27.6-2.8-42.4-7.7
	c-25-8.3-48.5-22.2-64.5-38.2c-37.2-37.3-72.9-22.8-118.1-4.4c-14.1,5.7-28.6,11.6-44.6,16.7c-18.2,5.7-29,6.1-34.1,1.3
	c-7.3-7.1-1.9-26.1,4.9-50.2c5-17.5,10.7-37.4,13.6-59C1122,98.1,1127.4,34.2,1130,0h-1.5c-2.6,34.2-8.1,98-15.1,150.5
	C1110.4,171.9,1104.8,191.7,1099.8,209.2z"/>
<path class="st0" d="M1063.3,200.7c-11,40.5-10.6,69.1,1.3,82.7c6.1,7,15.1,9.8,26.6,8.3c30.2-4,54.7-16.7,76.3-28
	c32.3-16.8,55.6-29,77,0.7c22.7,31.6,66.7,40.9,99.7,43.3c6.3,0.4,12.9,0.7,19.5,0.7c11.9,0,24.2-0.7,36.5-2.1v-1.5
	c-19.1,2.1-38.1,2.7-55.9,1.4c-32.6-2.3-76.2-11.6-98.5-42.6c-22.1-30.7-47.2-17.7-78.9-1.1c-21.5,11.2-45.8,23.9-75.8,27.8
	c-11,1.4-19.5-1.2-25.2-7.8c-11.5-13.1-11.8-41.2-0.9-81.3c11.4-41.9,18.1-102.5,21.8-146c1.8-21.1,3-40.4,3.8-55.2h-1.5
	c-0.8,14.8-2.1,34-3.8,55.1C1081.4,98.4,1074.6,158.9,1063.3,200.7z"/>
<path class="st0" d="M1161,192.3c4.5,5.5,10.4,7.9,17.8,7.2c42.4-4,66.3-15.7,82-23.4c19.6-9.6,26.2-12.8,43.2,9
	c16.3,20.7,47.2,33.6,79.9,33.6c1.8,0,3.6,0,5.4-0.1c3.6-0.2,7.2-0.5,10.6-1v-5c-3.5,0.5-7.1,0.8-10.9,1
	c-33.1,1.4-64.9-11-81.1-31.6c-19.6-24.9-29.5-20.1-49.4-10.4c-15.4,7.5-38.8,19-80.3,22.9c-5.6,0.5-10-1.2-13.4-5.4
	c-11.7-14.4-10.9-56.2,2.4-121c5.3-25.8,11.6-50.5,16.4-68.3h-5.2C1164,53.1,1137.7,163.7,1161,192.3z"/>
<path class="st0" d="M1198.5,97.3c3.4,4.4,8.4,6.3,14.6,5.7c8.7-0.8,16.6-2.1,24.2-3.3c29.3-4.7,50.5-8.1,71.1,25.6
	c12,19.6,32,31.3,53.3,31.3c1.6,0,3.1-0.1,4.7-0.2c13-1.1,24.7-6.5,33.7-15.3V139c-8.9,9.2-20.7,14.9-33.8,15.9
	c-22.3,1.8-44-9.8-56.5-30.4c-21.1-34.5-42.7-31.1-72.6-26.3c-7.6,1.2-15.5,2.5-24.1,3.3c-5.7,0.5-10.2-1.2-13.3-5.2
	c-13.4-17,0.1-70.7,7.7-96.4h-1.6c-2.5,8.6-5.7,20.2-8.3,32.4C1190.4,65.6,1190.8,87.5,1198.5,97.3z"/>
<path class="st0" d="M1225.2,72.9c3,4.3,7.9,6.1,14.5,5.4c13-1.4,23.8-4.2,33.4-6.7c13.4-3.5,23.2-6,29.8-2c4.3,2.6,7.3,8,9.3,16.8
	c2.6,11.3,10.4,22.2,21.9,30.6c10.1,7.4,21.6,11.8,30.9,11.8c0.3,0,0.5,0,0.8,0c8.9-0.2,14.6-4.7,16-12.5c3.8-21.7-1-83-10.1-116.5
	h-1.5c9.1,33,13.9,94.5,10.1,116.2c-1.6,9-8.8,11.1-14.5,11.2c-17,0.5-46.3-16.7-52-41.3c-2.1-9.2-5.3-14.9-10-17.7
	c-7.2-4.4-17.2-1.8-31,1.8c-9.5,2.5-20.3,5.3-33.1,6.7c-6.1,0.7-10.5-0.9-13.1-4.7c-9.1-12.9,2.5-48.1,12.1-72.2h-1.7
	C1227.1,24.2,1215.8,59.5,1225.2,72.9z"/>
<path class="st0" d="M1340,80.1c5.4,20.7,10.4,31.2,15.2,31.9c0.2,0,0.4,0,0.5,0c2.1,0,4.1-1.8,5.9-5.4c5-10.3,7.3-30.5,5.8-51.5
	c-1.6-22.2-6.9-39.1-14.2-45c-4.3-3.6-9.4-3.3-14.6,0.7c-6.7,5.1-9.9,13.5-8.5,22C1332,43.1,1335.6,63.1,1340,80.1z M1339.6,11.9
	l-0.5-0.6L1339.6,11.9c4.7-3.6,9-3.8,12.7-0.7c15.2,12.5,18.3,73.6,8,94.7c-1.6,3.3-3.2,4.8-4.8,4.6c-6.8-1-15.7-30.1-23.8-78
	C1330.4,24.5,1333.4,16.6,1339.6,11.9z"/>
<path class="st0" d="M1247.1,63.7c0.5,0,1,0,1.5-0.1c22.7-1.7,49.5-6.4,56.2-28c3-9.6-2.3-18.7-13.7-23.7
	c-10.3-4.5-22.1-4.2-32.3,0.8c-10.5,5.2-18.2,14.7-21,26.1c-2.6,10.4-2.2,17.6,1.1,21.5C1240.6,62.6,1243.4,63.7,1247.1,63.7z
	 M1239.1,39.2c2.7-11,10.1-20.1,20.3-25.1c5.2-2.6,10.8-3.8,16.4-3.8c5,0,10,1,14.6,3.1c10.8,4.7,15.6,12.9,12.9,21.8
	c-6.4,20.7-32.7,25.3-54.8,27c-3.9,0.3-6.8-0.6-8.5-2.8C1236.9,55.9,1236.7,49.1,1239.1,39.2z"/>
<path class="st0" d="M1259.5,49.7c0.2,0,0.5,0,0.7,0c10.9-0.8,23.9-3.1,27.1-13.7c1.5-4.8-1.1-9.3-6.8-11.8
	c-5-2.2-10.8-2.1-15.7,0.4c-5.1,2.5-8.9,7.2-10.3,12.7c-1.3,5.1-1.1,8.6,0.6,10.6C1256.2,49.2,1257.6,49.7,1259.5,49.7z M1256,37.8
	c1.3-5.1,4.7-9.4,9.5-11.7c2.4-1.2,5-1.8,7.7-1.8c2.3,0,4.6,0.5,6.8,1.4c5,2.2,7.2,5.9,5.9,9.9c-2.3,7.5-10.3,11.4-25.8,12.6
	c-1.7,0.1-3-0.3-3.8-1.2C1255,45.5,1254.9,42.3,1256,37.8z"/>
<path class="st0" d="M1178.6,175.8c2,1.2,4.1,1.9,6.4,1.9c1.2,0,2.4-0.2,3.7-0.5c8.1-2.2,17.7-5.7,27.8-9.4
	c28-10.2,59.8-21.8,75.1-11.7c5.4,3.6,8.3,3.2,9.6,2.2c1.6-1.1,2.1-3.4,1.3-6.5c-1.1-4.5-5.1-11.8-13.2-18.7
	c-6.1-5.2-16.7-11.9-32.2-14.2c-17.4-2.6-36.1-3.4-55.7-2.2c-10.2,0.6-19.8,5.6-26.1,13.7c-6.1,7.9-8.6,17.9-6.8,27.6
	C1169.7,164.3,1173,172.2,1178.6,175.8z M1176.6,131.3c6.1-7.8,15.2-12.6,25-13.2c19.5-1.2,38.1-0.5,55.4,2.1
	c26,4,41.7,21.3,44.2,31.8c0.6,2.4,0.3,4.2-0.7,5c-1.4,1-4.3,0.2-8-2.2c-15.9-10.5-48,1.2-76.4,11.6c-10.1,3.7-19.6,7.1-27.7,9.3
	c-3.2,0.9-6.2,0.5-8.9-1.2c-5.2-3.3-8.3-10.8-9.4-16.7C1168.3,148.5,1170.7,138.8,1176.6,131.3z"/>
<path class="st0" d="M1197.5,159.8c4.2,0,9.5-1.5,15.9-3.4c7.7-2.2,17.4-5,29.2-6.3c29.9-3.4,40-5.7,40.2-9.1c0.1-1.8-2-4-18.1-7.2
	c-28.6-5.6-39.6-5-43-4.5l-0.3,0.1c-0.8,0.1-1.5,0.2-2.3,0.3c-6.1,0.8-26.3,4-31.7,12.9c-1.6,2.6-1.8,5.5-0.7,8.6
	C1188.9,157.7,1192.4,159.8,1197.5,159.8z M1188.5,143.5c5.1-8.4,24.7-11.5,30.6-12.2c0.8-0.1,1.6-0.2,2.4-0.4l0.3-0.1
	c2.6-0.4,13.3-1.3,42.5,4.5c16.2,3.2,16.9,5.2,16.9,5.6c-0.1,3.3-29.3,6.6-38.8,7.7c-12,1.3-21.7,4.1-29.4,6.4
	c-14.1,4.1-21.2,6.1-25-4.1C1187,148.2,1187.1,145.8,1188.5,143.5z"/>
<path class="st0" d="M1338,167.6c-6-2.9-9.9-3.7-11.7-2.3c-0.6,0.5-1.3,1.4-1,3.3c1.1,6.6,13.2,19.1,23.5,22.4
	c11.1,3.5,29.8,7,46.2,7c1.7,0,3.4,0,5-0.1v-1.5c-17.2,0.9-38.6-3-50.8-6.9c-10.3-3.3-21.6-15.7-22.5-21.2c-0.2-0.9,0-1.5,0.4-1.8
	c0.6-0.5,2.8-1.1,10.2,2.5c10.4,5.1,26.4,4.6,47.5-1.5c5.6-1.6,10.8-3.4,15.2-5v-1.6C1383.4,167,1354.5,175.6,1338,167.6z"/>
<path class="st0" d="M1356,180.6c-0.2,0.3-0.3,0.9,0.2,1.6c1.7,2.4,11.7,4.9,25.2,4.9c4.6,0,9.6-0.3,14.8-0.9l-0.2-1.5
	c-23.4,2.9-38.2-1.7-38.6-3.3c0,0,0.8-1.2,7.7-1.2c12.1,0,25.8-3.1,35-5.7v-1.6c-9.1,2.6-22.9,5.8-35,5.8
	C1357,178.7,1356.3,180.1,1356,180.6z"/>
<path class="st0" d="M1134.6,228.6c9.2,5.1,33.2-3,61.1-12.3c32.3-10.8,68.9-23.1,81.8-12.8c18.7,14.8,72.8,54,120.6,54
	c0.6,0,1.2,0,1.9,0V256c-47.7,1.1-102.7-38.8-121.5-53.7c-13.6-10.8-49,1.1-83.2,12.6c-26.3,8.8-51.2,17.1-59.9,12.4
	c-7.1-3.9-12.2-28.9,3.3-125.7c6.6-40.8,14.7-81,19.1-101.7h-1.5C1145.4,50.9,1112.4,216.3,1134.6,228.6z"/>
<path class="st0" d="M655.7,77.6c6.8,2.8,12.8,5.1,18,7.2c35.4,13.7,36.1,14,33.5,70.1c-0.7,16.1-4.1,36.7-7.8,58.4
	c-8.3,50.4-17.8,107.5,2.5,131.1c6.6,7.6,16,11.4,28,11.2c23-0.3,41.1-3,55.6-5.2c17.5-2.6,29.1-4.3,35,0.8
	c3.9,3.4,5.7,9.7,5.7,20.6c0,11.1,4.5,19.6,12.5,24.1c3.6,2,7.8,3,12,3c5.6,0,11.5-1.7,16.9-5.1c22-13.8,22.7-43.8,22-56.1
	c-2.4-42.8-7.6-48.9-18.8-62.3c-7.2-8.6-17-20.3-30.3-47c-8.3-16.7-15.4-28.4-21-37.8c-17.2-28.6-19.4-32.3,3-76.5
	c26-51.1,24.3-56.2,16.9-77.7c-1.2-3.4-2.5-7.3-3.9-11.8c-2-7.1-1.9-15.7-0.5-24.7h-1.6C832,9,832,17.7,834.2,25.1
	c1.4,4.6,2.7,8.5,3.9,11.9c7.4,21.5,8.9,26-16.8,76.6c-22.8,44.9-20.2,49.3-3,78c5.6,9.4,12.7,21.1,21,37.7
	c13.4,26.8,23.3,38.6,30.5,47.3c11,13.2,16,19.2,18.4,61.5c0.7,12,0,41.3-21.3,54.7c-9,5.6-19.5,6.4-27.4,2
	c-7.6-4.2-11.8-12.3-11.8-22.8c0-11.4-1.9-18.1-6.2-21.8c-6.5-5.6-18.3-3.8-36.2-1.1c-14.4,2.2-32.4,4.9-55.4,5.2
	c-11.7,0.2-20.5-3.3-26.8-10.7c-19.9-23.1-10.5-79.9-2.2-129.9c3.6-21.8,7-42.4,7.8-58.6c1.3-27.7,1.7-42.7-2.8-51.9
	s-13.6-12.7-31.6-19.7c-5.2-2-11.2-4.3-18-7.2c-21.6-9-31.9-28.7-30.4-58.5c0.3-6.3,1.1-12.4,2.1-17.9h-1.5
	c-1,5.5-1.8,11.5-2.1,17.7C622.9,47.7,633.7,68.5,655.7,77.6z"/>
<path class="st0" d="M652.3,39.4c3.5,7.8,10.1,13,19.5,15.3c10.5,2.6,19.9,3.8,28.2,4.9c14.6,2,25.2,3.4,30.5,10.6
	c4.6,6.3,5.1,17,1.8,34.6c-0.9,4.8-2,10.5-3.4,17.1c-11.5,57.9-33,165.7-7.6,193.4c4.6,5,10.6,7.2,17.8,6.4c9.6-1,18.6-2.2,27.3-3.3
	c30.6-3.9,54.8-7,63.8,0.6c2.6,2.1,3.9,5.1,4,9c0.7,16.2,9.7,33.2,18.1,34.4c0.3,0,0.6,0.1,0.9,0.1c2.7,0,6.2-1.8,8.5-9.2
	c3.6-11.3-9.2-31.4-25.4-56.9s-34.6-54.5-41.6-82.6c-14-55.9-18-82.6-1-122.5c7.5-17.8,2.4-37.9-2.5-57.4c-3-11.7-5.9-23.1-6.2-33.8
	h-1.4c0.3,11.1,3.2,22.8,6.2,34.2c4.9,19.3,9.9,39.2,2.6,56.5c-17.1,40.3-13.1,67.2,1,123.5c7.1,28.3,25.5,57.4,41.8,83
	c15.3,24.2,28.6,45,25.2,55.6c-1.3,4-3.7,8.7-7.8,8.1c-7-0.9-16.1-16.3-16.8-32.9c-0.2-4.3-1.7-7.6-4.6-10.1c-9.5-8-32.8-5.1-65-0.9
	c-8.7,1.1-17.7,2.3-27.3,3.3c-6.7,0.7-12.3-1.3-16.6-5.9c-24.8-27.1-2.6-138.5,8-192.1c1.3-6.6,2.5-12.3,3.4-17.2
	c3.4-18,2.8-29.1-2-35.7c-5.6-7.8-16.5-9.2-31.5-11.3c-8.2-1.1-17.6-2.3-28-4.9c-9-2.2-15.2-7-18.5-14.4
	c-4.9-10.9-2.9-25.8,0.8-38.9h-1.6C649.2,13,647.2,28.1,652.3,39.4z"/>
<path class="st0" d="M682.3,24.3c4.1,7.3,10.7,12.1,19.6,14.3c37.6,9.1,48.4,13,48.4,39.3c0,15.9,5.6,30.7,11.8,31
	c0.1,0,0.1,0,0.2,0c3.3,0,7.6-4.1,9.5-22.9c2.2-22.3-1.2-58.5-4.6-86.1h-1.5c3.4,27.5,6.8,63.7,4.6,85.9c-2,20.3-6.7,21.6-8.1,21.6
	c-4.7-0.2-10.4-13.4-10.4-29.5c0-27.4-11.9-31.6-49.6-40.7c-8.5-2.1-14.7-6.6-18.6-13.6c-4-7.2-4.9-16.1-4.7-23.7h-1.5
	C677.1,8,678.1,16.9,682.3,24.3z"/>
<path class="st0" d="M730.1,22.9c10.4,3.6,14.6,11.5,17.2,16.2c1.4,2.5,2.2,4.1,3.5,4.1c0,0,0,0,0.1,0c1.2,0,2-1.4,2.9-3.4
	c2.3-5.4-0.4-23.1-3.9-40h-1.5c3.5,16.7,6.3,34.3,4.1,39.4c-1,2.4-1.5,2.5-1.5,2.5c-0.4,0-1.4-1.9-2.2-3.3
	c-2.6-4.9-7.1-13.2-18-16.9C720.3,18,716.1,8.1,714.3-0.1h-1.5C714.6,8.5,719.1,19.1,730.1,22.9z"/>
<path class="st0" d="M754.8,288.6c7.8,2.4,14.8,5,21.1,7.2c10.4,3.8,18.4,6.7,23.6,6.7c2.3,0,4-0.6,5.3-1.8c3.7-3.8,1.6-13.7-7-34.1
	c-6.8-16-14.1-35.2-21.3-53.7c-18.3-47.7-26.8-68.5-31.1-67.9c-1.5,0.2-1.8,2.3-2,3.8c-0.4,1.5-7.8,32.5-10.3,64.7
	C729.7,257.8,737,283.1,754.8,288.6z M744.7,149.1V149c0.2-2.3,0.7-2.5,0.7-2.5l0,0c0.6,0,3,1.6,10.8,19.7
	c5.3,12.5,11.8,29.4,18.7,47.3c7.1,18.6,14.5,37.8,21.3,53.8c8.1,19.2,10.4,29.2,7.3,32.5c-3.3,3.5-13.3-0.2-27.2-5.2
	c-6.3-2.3-13.4-4.9-21.2-7.3C714.4,274.5,744.4,150.3,744.7,149.1z"/>
<path class="st0" d="M755.6,262.5c1.5,0.9,2.8,1.4,4.1,1.4c1,0,2-0.3,2.8-1c7.1-6,1.6-39.1-4.2-53.5c-2-5-3.9-7.4-5.8-7.3
	c-1.4,0.1-2.4,1.6-3.2,4.5c-0.2,0.7-3.8,11-4.9,22.8C742.9,245.6,746.8,257.1,755.6,262.5z M750.7,207.2L750.7,207.2
	c0.8-3.2,1.6-3.5,1.9-3.5l0,0c0.8,0,2.3,1.7,4.2,6.3c2.9,7.2,5.7,19,6.9,29.4c1.4,11.9,0.6,20-2.2,22.4c-1.2,1-2.9,0.9-5.1-0.5
	C736.2,248.7,750.6,207.6,750.7,207.2z"/>
<path class="st0" d="M75.1,800.4c24.4,14.7,49.3,22.2,73.9,22.2c0.3,0,0.5,0,0.8,0c96,0,138.1-36,158.4-53.2
	c7.5-6.4,12.5-10.7,16-9.7c2.6,0.8,4.8,4.6,7.1,12.4c5.2,17.4,24.5,33.9,48.8,33.9c2,0,4-0.1,6-0.3c7.4-0.8,18.7-3.3,30.7-6
	c21.3-4.7,50.6-11.2,53.5-5.8c0.6,1.2,0.3,3.7-5.2,9.1c-14.8,14.8-42.2,17.6-68.7,20.4c-33,3.5-64.2,6.7-73.1,31.2
	c-4,10.9-7.3,25.7-10.8,41.3c-8.1,36.2-17.6,79-40.9,103.9h2.1c22.8-25.4,32.3-67.7,40.3-103.6c3.5-15.6,6.8-30.3,10.7-41.1
	c8.6-23.5,39.3-26.8,71.9-30.2c26.8-2.8,54.5-5.7,69.6-20.9c4.9-5,6.7-8.5,5.4-10.9c-3.3-6-24.9-1.7-55.2,5
	c-11.9,2.6-23.2,5.1-30.5,5.9c-26.3,2.9-47.7-14.2-53.2-32.5c-2.6-8.6-4.9-12.5-8.1-13.4c-4.2-1.2-9.2,3-17.4,10
	c-20.1,17.2-61.9,52.9-157.4,52.9c-0.3,0-0.5,0-0.8,0c-24.4-0.1-49-7.5-73.2-22c-19.4-11.7-38.5-27.9-56.9-48.3
	c-7-7.7-13.3-15.5-19-22.9v2.5c5.4,7,11.3,14.2,17.8,21.4C36.3,772.3,55.5,788.7,75.1,800.4z"/>
<path class="st0" d="M280.1,927.2c12.9-44.9,11.9-89.7,2.9-103.4c-3.1-4.8-7-6.8-11.5-6c-18.1,3.1-43.8,52.7-58.5,112.9
	c-5,20.2-14.1,48.1-29.5,66.1c-1,1.1-1.9,2.1-2.8,3.1h2.1c10-10.7,22.3-30.9,31.6-68.8c14.4-58.7,40.1-108.8,57.3-111.8
	c3.9-0.7,7.2,1.1,10,5.3c4.4,6.7,6.8,21.3,6.5,39.9c-0.4,19.9-3.7,42-9.5,62.3c-5.8,20.1-18.3,53-42.2,73.1h2.3
	C256.6,984.3,270.9,959.2,280.1,927.2z"/>
<path class="st0" d="M260.4,877.4c-0.5-2.3-1.5-3.5-2.8-3.6c-1.9-0.1-7.7-0.4-33,67.5c-8.6,23.1-16.6,46.4-20.7,58.7h1.6
	c4.2-12.4,12.1-35.4,20.5-58.1c22.3-59.9,29.4-66.5,31.5-66.5l0,0c0.8,0,1.2,1.5,1.4,2.4c5.3,23.3-21,98.4-41.2,122.2h1.9
	c8.5-10.5,18.5-30.2,27.1-53.6C255.5,922.7,263.7,892.1,260.4,877.4z"/>
<path class="st0" d="M185.8,858c14.9,0.5,19.9,0.7,24.5-6.4c2.5-3.9,2.8-7.6,0.9-10.8c-6.5-10.8-37.9-14.1-88.3-9.4
	c-40,3.8-75-17.2-97.3-35.4C15.2,787.6,6.5,778.9,0,771.7v2.2c6.4,7,14.8,15.2,24.6,23.3c22.5,18.4,57.9,39.6,98.5,35.7
	c23.2-2.2,78.1-5.7,86.8,8.7c1.6,2.7,1.3,5.8-0.9,9.2c-4.1,6.3-8.5,6.2-23.2,5.7c-23.9-0.8-72.7-2.4-185.9,22.5v1.5
	C113.2,855.6,162,857.2,185.8,858z"/>
<path class="st0" d="M179.6,843.9c-0.1-1.1-0.2-3.4-38.1-4.9c-20.1-0.8-43.8-1-57.8-0.5c-0.7,0-1.3,0-2,0c-27.9,0-62.6-19.6-81.8-32
	v1.8C19.8,821.1,55.5,841,83.7,840c38.6-1.3,89.5,1.6,94.1,4c-1.8,1.1-12.7,3.5-67.9,6.9c-36.5,2.2-84.7,5.3-110,7v1.5
	c25.2-1.6,73.5-4.8,110-7C179.8,848.1,179.6,845.4,179.6,843.9z"/>
<path class="st0" d="M161,895.2c4.7,12.7-4.7,40.8-24.6,73.3c-7,11.5-14.5,22.1-22,31.5h1.8c28-35.2,53.7-85.2,46.3-105.3
	C153.6,871,44,900.9,0,914v1.6c16.4-4.8,42.1-12.1,68.2-18.1C139.5,881.3,158,887.3,161,895.2z"/>
<path class="st0" d="M120,913.9c1.5,1,2.3,2.4,2.3,4.3c0,18-33.9,58.3-55.1,81.7h2c5.6-6.2,12-13.5,18.4-21.2
	c24-28.9,36.2-49.2,36.2-60.5c0-2.4-1-4.2-2.9-5.5c-15-10.1-87.5,16.1-120.8,28.9v1.6C32.8,930.6,105.6,904.3,120,913.9z"/>
<path class="st0" d="M61.6,947c0.7,0.3,1.1,0.8,1.3,1.5c0.9,3.6-2.6,12.7-24.2,35.3c-5.7,6-11.6,11.7-16.3,16.2h2.2
	c16-15.3,42.2-42.1,39.8-51.8c-0.3-1.1-1-2-2.2-2.5c-8.3-3.5-40.8,12.5-62.2,23.9v1.7c5.2-2.8,11.1-5.9,17.2-8.9
	C47.8,947.1,58.3,945.5,61.6,947z"/>
<path class="st0" d="M64.2,220.9c17.6-22.3,0.7-61.4-10.5-87.3c-4-9.2-4.6-17.1-1.8-24C57.8,95,78.6,86.3,100.6,77
	c12.4-5.2,25.3-10.6,36.8-17.5c21.8-13,40.3-35.5,52-52.1c1.8-2.6,3.5-5.1,5.1-7.6h-1.8c-1.4,2.2-3,4.4-4.6,6.7
	c-11.6,16.5-29.9,38.8-51.5,51.7C125.1,65,112.3,70.4,100,75.6C77.7,85,56.7,93.8,50.5,109c-2.9,7.3-2.4,15.5,1.8,25.2
	C63.3,159.8,80,198.4,63,220c-10.1,12.8-31.3,18.1-63,15.7v1.5c4.9,0.4,9.5,0.5,13.9,0.5C38.5,237.8,55.4,232.1,64.2,220.9z"/>
<path class="st0" d="M42.1,217.2c4.8-3.2,6.2-9.8,4.3-19.8c-2.2-11.3-6.5-23.5-10.6-35.4c-8.9-25.3-18-51.5-8.2-71
	c5.7-11.2,17.1-19.3,34.9-24.8c57.1-17.5,74.4-38,73.7-66.4h-1.6c0.6,27.7-16.5,47.8-72.6,64.9c-18.2,5.6-29.9,13.9-35.8,25.5
	c-10.1,20-0.9,46.5,8.1,72.1c4.1,11.8,8.4,24,10.6,35.2c1.8,9.3,0.6,15.5-3.6,18.3c-8.5,5.6-27.3-2.5-41.3-10v1.7
	c10.7,5.7,24.1,11.6,33.9,11.6C37.1,219.3,39.9,218.7,42.1,217.2z"/>
<path class="st0" d="M25,51.5c32.5,0,52.5-6,59.3-17.9c4.9-8.5,3-19.7-5.7-33.7h-1.8c8.8,13.8,10.9,24.8,6.2,32.9
	C72.3,51.4,28.2,51.2,0,48.9v1.5c7.1,0.6,15.1,1,23.4,1.1C23.9,51.5,24.5,51.5,25,51.5z"/>
<path class="st0" d="M13.4,194.4c1.3,0,2.3-0.4,3.2-1.2c7.6-6.9-5.7-46-16.6-73.9v4.2c11,28.8,21.9,62.8,15.6,68.6
	c-1.4,1.3-3.8,1-7.2-0.9c-2.9-1.6-5.7-3.2-8.4-4.6v1.7c2.4,1.3,5,2.7,7.6,4.2C9.9,193.8,11.8,194.4,13.4,194.4z"/>
<path class="st0" d="M37.3,22c4.4-5,6-12.6,4.5-22.1h-1.5c1.1,7,0.9,15.4-4.1,21.2c-6.2,7-18.4,8.6-36.2,4.8v1.5
	c6.2,1.3,11.8,2,16.7,2C26.1,29.4,33,26.9,37.3,22z"/>
<path class="st0" d="M1340.5,471.4c-2.4,3.7-2.5,8-0.2,12.8c4.4,9.1,9.4,17.6,14.2,25.8c11.7,19.8,21.8,37,19.7,55.8
	c-1.7,15.7,0.9,27.2,8,35c4.3,4.7,10.2,8.1,17.7,10.2v-1.5c-7.1-2.1-12.6-5.3-16.6-9.7c-6.8-7.5-9.3-18.5-7.7-33.8
	c2.1-19.3-8.1-36.7-19.9-56.7c-4.8-8.2-9.8-16.6-14.2-25.7c-2.1-4.4-2.1-8.1,0-11.3c7.4-11.1,38-13.5,58.3-13.8v-1.6
	C1379.5,457.2,1348.3,459.6,1340.5,471.4z"/>
<path class="st0" d="M1370.5,485.3c-1.1,1-1.6,2.2-1.6,3.6c0.3,7.2,15.8,18.6,29.5,28.8c0.5,0.4,1,0.8,1.5,1.1v-1.9
	c-0.2-0.2-0.4-0.3-0.6-0.5c-12.1-8.9-28.6-21.2-28.9-27.6c0-1,0.3-1.7,1-2.4c2.1-1.9,8.9-4.1,28.5-3.9V481
	C1387.7,480.9,1374.6,481.8,1370.5,485.3z"/>
<path class="st0" d="M296.9,10.3c3.5,9.6,13.5,16.5,29.9,20.3c24.9,5.9,26.7,22.6,28.2,37.4c0.9,8.8,1.7,16.3,7.2,20.3
	c2.5,1.8,5.8,2.7,10.1,2.7c3.1,0,6.7-0.5,10.9-1.4c19.3-4.3,40.9-16.2,61.8-27.7c0.4-0.2,0.9-0.5,1.3-0.7
	c11-7.8,21.5-14.1,32.5-16.7c17.4-7.6,31.9-10.2,39.6-0.2C528.4,57.1,543.5,68,555,68c2.3,0,4.5-0.4,6.4-1.4
	c7.4-3.5,14.3-15.6,5.3-52.9c-1.2-4.8-2.3-9.4-3.3-13.8h-1.5c1.1,4.5,2.2,9.2,3.4,14.2c8.7,36.4,2.4,47.9-4.5,51.2
	c-10.9,5.2-29.8-7.3-41.2-21.9c-13.2-16.9-43.4-0.4-75.4,17.2c-20.8,11.4-42.3,23.2-61.4,27.5c-9.4,2.1-15.9,1.8-19.8-1.1
	c-5-3.6-5.7-10.8-6.6-19.2c-1.5-14.5-3.3-32.6-29.3-38.7c-15.8-3.7-25.6-10.2-28.8-19.4c-1.2-3.3-1.4-6.7-1.1-9.9h-1.5
	C295.4,3.6,295.8,7.1,296.9,10.3z"/>
<path class="st0" d="M478.8,44.6c-11.1,2.6-21.5,8.9-32.5,16.7C457.6,55,468.7,49,478.8,44.6z"/>
<path class="st0" d="M340.9,6.4c0.6,4,4.2,7.1,10.6,9.2c3.3,1.1,6.4,2,9.3,2.9c12.2,3.8,20.3,6.2,22.8,11.3
	c1.3,2.6,1.1,5.8-0.6,10.2c-1.2,3.1-0.6,5.7,1.7,7.6c2.6,2.2,7.4,3.3,13.7,3.3c16.1,0,41.9-7.2,65-21.3
	C489.1,13.9,502,6.7,509.9,8.8c3.4,0.9,6.2,3.6,9.1,9.1c6.3,11.6,17,23,23.5,21.4c3.4-0.9,5.2-5.1,5.2-12.4c0-8.6-1.7-18.2-3.9-27
	h-1.5c2.2,8.8,3.9,18.5,3.9,27c0,6.5-1.4,10.3-4.1,11c-5.5,1.4-16-9.8-21.9-20.7c-3.2-5.8-6.2-8.8-10-9.8c-8.4-2.3-21.6,5-47.7,20.9
	c-33,20.2-68.9,24.8-77,18.2c-1.8-1.5-2.2-3.4-1.3-5.9c1.8-4.8,2-8.4,0.5-11.4c-2.8-5.6-11.1-8.2-23.7-12.1c-2.9-0.9-6-1.8-9.3-2.9
	c-5.8-1.9-9-4.6-9.6-8c-0.3-2,0.3-4.2,1.4-6.3h-1.7C341.1,2,340.5,4.3,340.9,6.4z"/>
<path class="st0" d="M406.7,28.7c0.8,1.1,2,1.7,3.9,1.7c1.3,0,2.8-0.3,4.6-0.8c16.3-4.9,41-20,55.8-29.7h-2.7
	c-14.8,9.6-38,23.7-53.5,28.3c-2.5,0.8-5.8,1.3-6.8-0.3c-2.6-3.9,5.9-17.4,13.6-28h-1.9C412.3,10.1,403.6,24,406.7,28.7z"/>
<path class="st0" d="M1378,658.3c-4.8,1.3-8.3,4.7-10.4,10.3c-4.2,11.6,2.3,32.6,19.3,62.5c4.4,7.7,9,15.1,13.1,21.4v-2.8
	c-15.7-24.5-37.4-63.1-31-80.6c1.9-5.1,5-8.3,9.3-9.4c6.3-1.7,14.4,1.1,21.6,4.8v-1.6C1391,658.4,1383.7,656.8,1378,658.3z"/>
<path class="st0" d="M1385.9,676.3c-5.6,4.2,10.5,33.2,13.8,39l0.3-0.2v-2.3c-13-23.1-15-33.9-13.2-35.3c2.1-1.6,7.6,2.1,13.2,7v-2
	C1394.6,677.9,1388.7,674.2,1385.9,676.3z"/>
<path class="st0" d="M577.4,31.9c1.8,33.1,9,54.1,21.2,62.6c3.8,2.6,7.8,5.2,12,7.9c28.1,18.2,63,40.8,52.7,81.2
	c-6.5,25.6-15.1,69.5-17.8,109.3c-3.4,50.4,3.4,79.5,20.2,86.6c10.8,4.6,25.5,7.9,41.1,11.4c39.2,8.8,83.6,18.8,84.1,52.6
	c0.2,16.4,6.3,28.3,18.1,35.4c8,4.8,17.6,6.6,26.8,6.6c11.2,0,21.8-2.7,28.2-6c10.4-5.4,29.5-32.3,45.5-63.9
	c26.7-53,30.4-88.8,30.2-105.4c-0.4-37.3-20.1-63.2-37.5-86c-13-17-24.2-31.7-23.9-47.3c0.4-21.6,7.6-33.7,14.6-45.4
	c4.7-7.9,9.6-16.2,12.1-27.1c2.4-10.6-2.1-27.1-6.9-44.7C891.7,36,885,11.6,894.6-0.1h-1.9c-9,12.5-2.4,36.7,4,60.2
	c4.7,17.4,9.2,33.8,6.9,44c-2.4,10.7-7,18.5-11.9,26.7c-7.1,11.9-14.4,24.2-14.8,46.1c-0.3,16.1,11.1,31,24.2,48.3
	c17.2,22.6,36.8,48.3,37.1,85.1c0.2,16.5-3.5,52-30.1,104.7c-15.6,30.9-34.8,58.1-44.8,63.3c-11.4,5.9-36.3,9.8-53.6-0.6
	c-11.3-6.8-17.1-18.2-17.4-34.1c-0.5-35-45.5-45.1-85.3-54.1c-15.5-3.5-30.2-6.8-40.8-11.3c-37.7-15.9-13.1-148.8-1.6-194.1
	c10.6-41.5-24.8-64.4-53.3-82.9c-4.2-2.8-8.3-5.3-12-7.9c-21-14.6-21.6-67.3-20.5-93.4h-1.5C576.9,8.5,576.7,20,577.4,31.9z"/>
<path class="st0" d="M971,94.6c-19.2,43.3-28.6,73.6-19.4,100.5c3.7,10.8,10.2,32.5,12.9,57.2c2.9,26.5,0.3,48.4-7.5,64.9
	c-15.3,32.3-37.2,92.3-21.9,111.9c3.4,4.4,8.6,6.6,15.2,6.6c2.3,0,4.8-0.3,7.5-0.8c17.8-3.5,32.4-8.5,44.1-12.5
	c21.9-7.5,36.4-12.4,49.9-1c22.5,19,62.7,15.9,95.6-7.3l0.1-0.1c0.1-0.1,12-11.9,27.6-23.4c20.6-15.1,38.4-22.7,51.4-21.9
	c7.4,0.4,13.4,3.5,17.9,9.2c14.4,18.3,36.8,31.3,64.7,37.7c26.6,6.1,57.8,5.8,90.9-0.7v-1.5c-33,6.5-64.1,6.8-90.6,0.8
	c-27.6-6.3-49.6-19.2-63.8-37.1c-4.8-6-11.1-9.3-19-9.8c-31.9-1.9-77.6,43.2-80.1,45.7c-32.3,22.8-71.7,25.9-93.7,7.3
	c-14.2-12-29-6.9-51.4,0.7c-11.7,4-26.3,9-43.9,12.5c-9.8,1.9-17,0.2-21.2-5.3c-14.8-19,6.9-78.3,22.1-110.3
	c8-16.8,10.5-38.9,7.7-65.7c-2.7-24.8-9.3-46.7-13-57.5c-9-26.5,0.2-56.5,19.3-99.5c9.7-21.8,11.7-50,11.7-69.7
	c0-10-0.5-18.9-1-25.6h-1.5c0.5,6.7,1.1,15.6,1.1,25.6C982.6,45.1,980.6,73,971,94.6z"/>
<path class="st0" d="M1186.9,421.9c6.7,1.4,15.6,3.7,25.1,6.1c26.8,6.8,49.3,12.1,61.2,12.1c4.6,0,7.6-0.8,8.7-2.6
	c1.2-1.9,0.2-4.6-3-8.2c-22-25-43.4-47.1-63.6-43.2l-0.2,0.1c-1.6,0.7-39.4,18.1-38.2,29.1C1177.4,418.4,1180.6,420.6,1186.9,421.9z
	 M1215.8,387.6c19.4-3.7,40.4,18.1,62.1,42.7c2.6,2.9,3.6,5.2,2.8,6.4c-3.7,6.1-41-3.3-68.3-10.2c-9.5-2.4-18.4-4.6-25.2-6.1
	c-5.5-1.2-8.4-3-8.7-5.4C1177.6,406.9,1205,392.5,1215.8,387.6z"/>
<path class="st0" d="M1212.1,417c2.7,0.6,6.4,1.5,10.3,2.5c11.5,2.9,20.2,5,25.1,5c2.1,0,3.5-0.4,4-1.3c0.9-1.4-0.7-3.3-1.3-3.9
	c-7.3-8.3-17.3-19.6-26.5-17.8l-0.2,0.1c-2.7,1.3-16.4,7.7-15.9,12.4C1207.9,415.4,1209.3,416.4,1212.1,417z M1224.1,402.9
	c7.7-1.4,16.2,7.4,25,17.4c1,1.2,1.2,1.9,1.1,2.1c-1.3,2.2-18.4-2.1-27.5-4.4c-3.9-1-7.6-1.9-10.3-2.5c-2-0.4-3.1-1.1-3.2-1.8
	C1208.9,411.1,1217.7,405.9,1224.1,402.9z"/>
<path class="st0" d="M896.2,536.6c3.7,23.8,6.9,44.3,13.7,45.7c0.3,0.1,0.5,0.1,0.8,0.1c2.2,0,4.5-1.9,7-5.8
	c12.9-20.1,39.4-86,22.6-114.9c-5.7-9.8-15.7-14.3-29.9-13.6h-0.2l-0.1,0.1c-0.3,0.2-31.8,16-21.7,48.2
	C891.6,507,893.9,522,896.2,536.6z M910.5,449.6c13.5-0.7,23,3.6,28.4,12.8c15.7,27-8.7,91.7-22.5,113.3c-2.4,3.7-4.5,5.4-6.2,5
	c-5.8-1.2-9.2-23.2-12.5-44.5c-2.3-14.6-4.6-29.8-8-40.4C880.4,466.1,908.4,450.8,910.5,449.6z"/>
<path class="st0" d="M912.8,542.6c0.1,0,0.3,0.1,0.4,0.1c1.3,0,2.1-1.5,2.4-2.1c3.3-5.8,6.8-19.8,8.2-33.3c1-9.6,1.8-26.5-4.3-32.3
	c-3-2.9-7.2-2.7-12.3,0.6l-0.3,0.2v0.4c0,0.2-0.1,16.2,0.5,32.3C908.6,541.5,911.5,542.3,912.8,542.6z M908.4,476.7
	c4.4-2.7,7.8-2.8,10.2-0.6c4.1,4,5.5,15.3,3.8,31.1c-1.4,13.1-4.9,27.1-8.1,32.7c-0.7,1.1-1.1,1.3-1.2,1.3
	C909.9,540.3,908.2,507.7,908.4,476.7z"/>
<path class="st0" d="M969,460.3c4.1,0.3,11.2,0.5,19.6,0.5c8.4,0,18.1-0.2,27.4-0.7c34.9-1.9,35.9-6.6,36.2-8.2
	c0.6-2.8-3.3-5.7-12.3-9c-1.5-0.7-29.3-13.3-42-4.6c-4.4,3-12.2,6.4-19.1,9.4c-11.4,4.9-17.4,7.6-16.9,10.2
	C962.2,459.3,964.3,460,969,460.3z M979.4,449c7.3-3.2,14.8-6.4,19.4-9.5c3-2,6.9-2.8,11.1-2.8c13.1,0,29.3,7.4,29.5,7.5h0.1
	c10.8,4,11.6,6.5,11.4,7.3c-1.6,7.3-58.9,8.6-81.7,7.2c-5.5-0.3-5.7-1.2-5.7-1.2C963.1,456.1,973.3,451.7,979.4,449z"/>
<path class="st0" d="M633.3,540.6c34-17,64.3-28,88.7-36.9c14.3-5.2,26.6-9.7,36.3-14.1c11-5.1,17.5-14.8,17.8-26.7
	c0.4-14.9-8.9-29.7-23.8-37.7c-12.1-6.5-26.8-12.7-39.4-16.6c-10-3.1-22.8-6.1-26.8-2.7c-0.9,0.8-1.9,2.4-0.9,5.2
	c0.2,0.7,3.9,15.4,1.8,31.4c-2.8,21.9-14.3,35.9-34.3,41.6c-8.1,2.3-17,4.7-26.5,7.2c-40.6,10.9-86.5,23.2-89.2,35.7
	c-0.5,2.6,0.6,5,3.5,7.3l1.9,1.5c12.3,10,23.6,19.2,42.1,19.2C596.8,555.2,612.3,551.1,633.3,540.6z M543.3,534.8l-1.9-1.5
	c-2.4-1.9-3.4-3.9-2.9-5.8c2.5-11.7,50-24.4,88.1-34.6c9.5-2.5,18.4-4.9,26.5-7.3c25.7-7.3,33.4-27.4,35.4-42.9
	c2.1-16.7-1.9-31.9-1.9-32v-0.1c-0.9-2.4,0.1-3.3,0.4-3.6c1-0.9,2.8-1.2,5.2-1.2c11.9,0,39.1,9.9,59.4,20.7
	c14.4,7.7,23.4,22,23,36.3c-0.3,11.3-6.5,20.5-17,25.3c-9.6,4.4-21.9,8.9-36.1,14.1c-24.4,8.9-54.8,19.9-88.9,36.9
	C580.7,565.2,563.4,551.1,543.3,534.8z"/>
<path class="st0" d="M687.9,504.3c3.6,0,8.3-0.9,14-2.7c24.2-7.5,43.9-26.8,45.7-44.9c1-9.8-3.6-18-12.9-23.1
	c-20.3-11.1-27.4-13.8-30.6-11.4c-1.8,1.4-2.1,4.2-0.9,9.9l0.1,0.2c0.1,0.2,9.3,20.7-4.8,34.1c-10.1,9.6-22.9,27.2-18.6,34.6
	C681.2,503.2,683.9,504.3,687.9,504.3z M685.2,485c3.6-5.8,9-12.5,14.3-17.6c14.4-13.8,5.8-34.3,5.2-35.8c-1-4.7-0.9-7.3,0.3-8.3
	c2.8-2.1,12.7,2.6,29,11.5c8.9,4.8,13,12.3,12.1,21.7c-1.8,17.5-20.9,36.3-44.6,43.6c-11.2,3.5-18.2,3.5-20.3,0
	C679.5,497.3,681,492,685.2,485z"/>
<path class="st0" d="M656.2,511.8c0.4-3.2-2-6.2-6.8-8.9l-0.2-0.1H649c-3.3,0.4-79.7,10.1-85.3,23.7c-0.7,1.6-0.4,3.3,0.8,4.9
	c2.8,3.6,10.2,5.1,19.7,5.1c12.2,0,27.8-2.5,41.6-6.4C634.5,527.5,655.2,520.7,656.2,511.8z M625.3,528.6c-29.9,8.5-55,7.8-59.7,1.8
	c-0.9-1.1-1.1-2.2-0.6-3.4c1.5-3.6,10.3-9.4,43.9-16.2c19-3.8,37.7-6.3,40-6.6c4.2,2.3,6.1,4.7,5.9,7.3
	C654.1,517.1,642.8,523.6,625.3,528.6z"/>
<path class="st0" d="M371.8,738.8c6.7,5.8,14.8,8.8,24.2,8.8c2.5,0,5.1-0.2,7.7-0.6c13.8-2.1,26.8-4.5,38.2-6.5
	c31.1-5.7,53.6-9.7,57.7-1.9c0.7,1.3,2.2,2.8,5.3,2.1c12.3-2.8,37.6-36.2,38.1-50.4c0.1-1.6-0.4-2.9-1.5-3.8
	c-3.8-3.1-14.7-0.5-29.6,3.1c-23.6,5.7-55.8,13.5-84.1,5.3c-10.6-3.1-20.1-5.9-28.5-8.4c-28.7-8.6-43.2-13-46.9-9.7
	c-0.8,0.7-1.1,1.7-0.9,2.9C351.6,681.5,351.5,721,371.8,738.8z M353.5,677.8c0.6-0.5,1.6-0.7,3.1-0.7c6.6,0,21.6,4.5,42.4,10.8
	c8.4,2.5,17.9,5.4,28.5,8.4c28.6,8.3,61.1,0.4,84.8-5.3c14-3.4,25.1-6.1,28.3-3.4c0.7,0.6,1,1.4,1,2.6c-0.6,14.5-26.4,46.6-37,49
	c-2.3,0.5-3.2-0.5-3.6-1.3c-4.7-8.8-26.4-4.9-59.3,1.1c-11.4,2.1-24.3,4.4-38.1,6.5c-12.3,1.9-22.7-0.7-30.7-7.8
	c-20.2-17.7-19.7-57.7-19.7-58.1v-0.1v-0.1C352.9,678.4,353.2,678,353.5,677.8z"/>
<path class="st0" d="M379.9,724.9c4.4,4.6,10.9,7,19.2,7c0.6,0,1.1,0,1.7,0c11.3-0.4,30.1-1.6,46.6-3.3c29.7-3.1,29.8-5.5,29.9-6.6
	c0.1-1.4-1.5-2.5-9.5-3.8c-10.3-1.6-23.9-4.3-37.1-7c-37.9-7.5-55.9-10.7-57.8-7.3c-0.4,0.7-0.2,1.5,0.6,2.5
	C373.4,708.4,373.2,718,379.9,724.9z M377.7,704c2.6,0,7,0.4,14.6,1.5c10.6,1.6,24.6,4.4,38.1,7.1c13.2,2.6,26.9,5.4,37.2,7
	c6.8,1.1,8,2,8.2,2.2c-2.2,3.4-46.8,7.5-75.1,8.5c-8.7,0.3-15.3-1.9-19.8-6.5c-6.8-7.1-6-17.6-6-17.7v-0.3l-0.2-0.2
	c-0.6-0.6-0.6-0.9-0.6-1C374.3,704.5,374.9,704,377.7,704z"/>
<path class="st0" d="M13.3,402.8c4.7-12.9,6.4-17.7,61.9-37.2c19.9-7,30.6-14.6,32.8-23.3c2.7-10.5-6.9-21-17-32.1
	c-8.8-9.7-18-19.8-19.3-30.3c-0.6-4.7-2.8-8.1-6.6-9.9C51,263.2,18.5,278.2,0,287.9v1.7c18.2-9.6,51-24.9,64.5-18.3
	c3.4,1.6,5.3,4.5,5.8,8.8c1.4,11,10.7,21.2,19.7,31.2c9.8,10.8,19.1,21,16.7,30.7c-2.1,8.2-12.5,15.5-31.8,22.3
	c-56.2,19.7-58,24.7-62.8,38.1c-1.5,4.2-3.4,9.4-7.6,16.2c-1.3,2.2-2.8,4.3-4.4,6.3v2.4c2.1-2.6,4-5.3,5.6-8
	C9.9,412.4,11.8,407.1,13.3,402.8z"/>
<path class="st0" d="M58.5,331.7c0.9-3.7-1.1-6.9-3.5-10.6c-2.3-3.6-4.9-7.7-5.9-13.6c-0.4-2.6-1.8-4.4-4.1-5.5
	c-9-4.1-30.7,5.5-45,12.9v1.7c14-7.3,35.8-17.2,44.3-13.3c1.8,0.8,2.9,2.3,3.2,4.4c1.1,6.2,3.9,10.6,6.1,14.2
	c2.3,3.6,4.1,6.4,3.3,9.5c-1,4-6.2,8.6-17.1,14.9c-14.8,8.7-29,17.2-40,23.9v1.8c11-6.7,25.5-15.5,40.7-24.3
	C52.1,340.9,57.4,336.2,58.5,331.7z"/>
</svg>
