<svg id="Layer_1" data-name="Layer 1" xmlns="http://www.w3.org/2000/svg" xmlns:xlink="http://www.w3.org/1999/xlink" viewBox="0 0 1574 1080"><defs><style>.cls-1{fill:#1b3451;}.cls-2{fill:#29566f;opacity:0.16;}.cls-3{fill:url(#linear-gradient);}.cls-4{fill:url(#linear-gradient-2);}.cls-5{fill:url(#linear-gradient-3);}.cls-6{fill:#327385;opacity:0.2;}.cls-7{fill:#53a8a9;opacity:0.12;}.cls-11,.cls-8{fill:#eaffe6;}.cls-8{opacity:0.31;}.cls-9{fill:#f7f7f7;}.cls-10{fill:#e5ece4;}.cls-11,.cls-25{opacity:0.14;}.cls-12,.cls-15,.cls-16,.cls-17,.cls-22,.cls-23{fill:#052840;}.cls-13,.cls-14,.cls-18,.cls-19,.cls-20{fill:#147271;}.cls-13,.cls-14,.cls-19,.cls-20{stroke:#147271;}.cls-13,.cls-14,.cls-15,.cls-16,.cls-17,.cls-19,.cls-20,.cls-22,.cls-23{stroke-miterlimit:10;}.cls-13,.cls-16{stroke-width:6px;}.cls-14,.cls-17{stroke-width:8px;}.cls-15,.cls-16,.cls-17,.cls-22,.cls-23{stroke:#052840;opacity:0.1;}.cls-15,.cls-20{stroke-width:5px;}.cls-19,.cls-22{stroke-width:4px;}.cls-21{fill:#3f93b1;opacity:0.29;}.cls-23{stroke-width:7px;}.cls-24,.cls-25{fill:#347b8d;}.cls-24{opacity:0.25;}</style><linearGradient id="linear-gradient" x1="1837.96" y1="1579.32" x2="1681.68" y2="693.02" gradientUnits="userSpaceOnUse"><stop offset="0" stop-color="#162b49"/><stop offset="1" stop-color="#1a8080"/></linearGradient><linearGradient id="linear-gradient-2" x1="-101.62" y1="1454.95" x2="63.59" y2="1001.05" xlink:href="#linear-gradient"/><linearGradient id="linear-gradient-3" x1="682.26" y1="1790.19" x2="835.74" y2="919.81" gradientUnits="userSpaceOnUse"><stop offset="0" stop-color="#162b49"/><stop offset="0.19" stop-color="#16314d"/><stop offset="0.44" stop-color="#174359"/><stop offset="0.74" stop-color="#19606b"/><stop offset="1" stop-color="#1a8080"/></linearGradient></defs><title>trees</title><rect class="cls-1" width="1920" height="1080"/><ellipse class="cls-2" cx="785.02" cy="651.25" rx="574.72" ry="576.75"/><ellipse class="cls-3" cx="1791" cy="1313" rx="800" ry="427"/><ellipse class="cls-4" cx="-19.01" cy="1228" rx="390.91" ry="214"/><ellipse class="cls-5" cx="759" cy="1355" rx="780" ry="427"/><ellipse class="cls-6" cx="785.02" cy="651.25" rx="415.97" ry="417.43"/><ellipse class="cls-7" cx="785.68" cy="651.92" rx="285.59" ry="286.59"/><ellipse class="cls-8" cx="785.02" cy="651.25" rx="191.56" ry="192.24"/><circle class="cls-9" cx="785.02" cy="651.25" r="143.3"/><circle class="cls-10" cx="736.52" cy="580.7" r="26.45"/><circle class="cls-10" cx="681.4" cy="613.77" r="13.23"/><circle class="cls-10" cx="718.88" cy="633.61" r="13.23"/><circle class="cls-10" cx="679.2" cy="651.25" r="8.82"/><path class="cls-11" d="M985,391h114a17.5,17.5,0,0,1,17.5,17.5h0A17.5,17.5,0,0,1,1099,426h-14.15a17.51,17.51,0,0,0-17.51,17.5h0A17.51,17.51,0,0,0,1084.81,461H1275.5a17.51,17.51,0,0,0,17.5-17.51h0a17.51,17.51,0,0,0-17.5-17.5H1165.25a17.51,17.51,0,0,1-17.5-17.51h0a17.51,17.51,0,0,1,17.5-17.5h3a17.51,17.51,0,0,0,17.51-17.51h0a17.51,17.51,0,0,0-17.51-17.5H985a17.51,17.51,0,0,0-17.5,17.5h0A17.51,17.51,0,0,0,985,391Z"/><path class="cls-12" d="M1154,828.18l-20.29-86.63h0l-1.62-15.74,6.49,8.84-10.87-51.41-7.52-73.1,10.08,20.12-16.61-121.8,8.9,14.68L1107.14,310l-24.91,301.23s15.42-46.76,16.61-35.89-23.73,101.14-23.73,101.14c8.3-5.44,24.91-46.77,23.73-39.15L1068,779.78c11.86-7.61,30.85-52.19,30.85-52.19L1065.5,869l40.5-51,37.88,51.5-4.23-70.26Z"/><line class="cls-13" x1="1104" y1="981" x2="1291" y2="1084"/><line class="cls-14" x1="1174" y1="1031" x2="1361" y2="1134"/><rect class="cls-12" x="1102.13" y="521.89" width="6.87" height="461.11"/><rect class="cls-12" x="1363.13" y="491.89" width="6.87" height="461.11"/><rect class="cls-12" x="69.13" y="593.89" width="6.87" height="461.11"/><line class="cls-15" x1="1365.88" y1="952.38" x2="1590.5" y2="1084.5"/><line class="cls-16" x1="74.5" y1="1052.5" x2="-4.5" y2="1092.5"/><line class="cls-17" x1="154.5" y1="1043.5" x2="75.5" y2="1083.5"/><line class="cls-16" x1="274.5" y1="1031.5" x2="184.5" y2="1082.5"/><line class="cls-16" x1="314.5" y1="1066.5" x2="224.5" y2="1117.5"/><line class="cls-15" x1="1492.88" y1="1055.38" x2="1724.5" y2="1187.5"/><polygon class="cls-12" points="147 1047 152 607 157 1047 147 1047"/><polygon class="cls-12" points="1172.15 1034 1177.15 594 1182.15 1034 1172.15 1034"/><polygon class="cls-12" points="1168.13 670 1168 701 1167.88 670 1168.13 670"/><polygon class="cls-12" points="1158.5 682.5 1168.3 668.36 1168.7 668.64 1158.5 682.5"/><polygon class="cls-12" points="1177.98 640.65 1161.5 690.5 1177.02 640.35 1177.98 640.65"/><polygon class="cls-12" points="1177.95 688.57 1210.5 758.5 1177.05 689 1177.95 688.57"/><polygon class="cls-12" points="1195.5 756.5 1194.5 725.76 1195.5 725.75 1195.5 756.5"/><polygon class="cls-12" points="1178.46 742.94 1168.43 781.73 1168.37 781.95 1168.24 782.11 1144.86 809.8 1144.96 809.58 1138.5 843.5 1144.04 809.42 1144.06 809.3 1144.14 809.2 1166.76 780.89 1166.57 781.27 1175.54 742.23 1178.46 742.94"/><polygon class="cls-12" points="1144.5 787.5 1169.27 774.06 1169.73 774.94 1144.5 787.5"/><polygon class="cls-12" points="1157.49 796.2 1153.5 814.5 1155.51 795.88 1157.49 796.2"/><polygon class="cls-12" points="1179.93 795.47 1204 908 1175.07 796.62 1179.93 795.47"/><polygon class="cls-12" points="1201.5 842.5 1183.92 825.05 1184.64 824.36 1201.5 842.5"/><polygon class="cls-12" points="1219.5 916.5 1215.11 886.55 1215.17 886.71 1188.7 847.43 1190.37 846.33 1215.83 886.29 1215.88 886.37 1215.89 886.45 1219.5 916.5"/><polygon class="cls-12" points="1215.5 982.5 1207.1 948.79 1207.39 949.4 1174.28 911.9 1179.72 907.49 1209.61 947.6 1209.86 947.92 1209.9 948.21 1215.5 982.5"/><polygon class="cls-12" points="1196.5 964.5 1194.5 933.75 1198.5 933.75 1196.5 964.5"/><polygon class="cls-12" points="1178.31 855.05 1150.37 878.5 1150.81 877.68 1140 947 1148.19 877.32 1148.25 876.85 1148.63 876.5 1175.69 852.03 1178.31 855.05"/><polygon class="cls-12" points="1156.5 898.5 1158.9 867.82 1161.88 868.2 1156.5 898.5"/><polygon class="cls-12" points="1126.85 924.81 1146.46 898.5 1147.25 899.11 1126.85 924.81"/><polygon class="cls-12" points="1138.5 901.5 1148.14 876.88 1150.86 878.13 1138.5 901.5"/><polygon class="cls-12" points="1149.5 1025.5 1148.04 997.5 1148.02 996.98 1148.46 996.48 1174.5 967.05 1179.5 971.95 1150.54 998.52 1150.96 997.5 1149.5 1025.5"/><polygon class="cls-12" points="1160.5 1005.5 1159.88 991.5 1159.87 991.42 1159.91 991.3 1162.3 983.17 1164.2 983.83 1161.09 991.7 1161.12 991.5 1160.5 1005.5"/><polygon class="cls-18" points="1167.45 1061.22 1195.21 1065.23 1194.48 1065.25 1224.14 1056.13 1225.8 1062.93 1195.27 1068.48 1194.81 1068.56 1194.54 1068.49 1167.45 1061.22"/><polygon class="cls-18" points="1186.55 1054.11 1193.35 1061.98 1193.15 1061.81 1199.12 1064.51 1198.19 1066.28 1192.58 1062.9 1192.43 1062.81 1192.38 1062.73 1186.55 1054.11"/><line class="cls-19" x1="1037" y1="1004" x2="1224" y2="1107"/><line class="cls-15" x1="1079" y1="1053" x2="1266" y2="1156"/><rect class="cls-12" x="1035.13" y="883.89" width="3.87" height="121.11"/><polygon class="cls-12" points="1496 1058 1490 1058 1491.13 564.89 1496 596.89 1496 1058"/><polygon class="cls-12" points="276 1033 270 1033 271.13 539.89 276 571.89 276 1033"/><path class="cls-12" d="M1283.64,827.53l12.29,10.66-20.27-42.62,11.67,9.59-11.67-55.41,9.21,10.66-13.51-49.54,10.44,14.91-12-73.78L1253,847l11.29-18.14L1252,957.25l51,44.75-12-89.76,8.6,12.25-12.9-73"/><polygon class="cls-12" points="1055 952 1042.5 893.5 1052.5 902.5 1038.5 688.5 1029.5 872.5 1036.5 859.5 1026 899 1019 923 1030 909 1019 941 1055 952"/><line class="cls-20" x1="1275" y1="1048" x2="1462" y2="1151"/><rect class="cls-12" x="1273.13" y="928.89" width="3.87" height="121.11"/><path class="cls-12" d="M535,841.8l-6.92,6,11.42-24-6.57,5.4L539.54,798l-5.19,6L542,776.13l-5.88,8.4L542.82,743l9.47,109.76-6.35-10.21,6.91,72.26L524.15,940l6.74-50.52-4.84,6.89,7.26-41.08"/><rect class="cls-12" x="539" y="866.89" width="3.87" height="121.11" transform="translate(1081.87 1854.89) rotate(-180)"/><polygon class="cls-12" points="1058.85 966.81 1078.46 940.5 1079.25 941.11 1058.85 966.81"/><polygon class="cls-12" points="1076.5 1054 1079 885 1081.5 1054 1076.5 1054"/><polygon class="cls-12" points="1091.72 1003.18 1083.1 1016.01 1089.99 1002.17 1091.72 1003.18"/><polygon class="cls-12" points="1080.66 981.38 1105.85 1029.11 1078.05 982.85 1080.66 981.38"/><polygon class="cls-12" points="1080.31 964.05 1066.49 975.19 1066.93 974.37 1061 1008 1064.31 974.01 1064.36 973.57 1064.76 973.2 1077.69 961.03 1080.31 964.05"/><polygon class="cls-12" points="1054.5 998.5 1064.59 974.08 1066.41 974.92 1054.5 998.5"/><polygon class="cls-12" points="1078.95 922.27 1084.11 933.06 1089 943.97 1083.67 933.27 1078.05 922.73 1078.95 922.27"/><polygon class="cls-12" points="1084.23 943.33 1083.57 933.56 1084.57 933.54 1084.23 943.33"/><path class="cls-21" d="M499.94,313.64H406.26a14.39,14.39,0,0,1-14.39-14.39h0a14.39,14.39,0,0,1,14.39-14.39h11.63a14.39,14.39,0,0,0,14.39-14.39h0a14.39,14.39,0,0,0-14.39-14.39H261.15a14.39,14.39,0,0,0-14.39,14.39h0a14.39,14.39,0,0,0,14.39,14.39h90.62a14.38,14.38,0,0,1,14.38,14.39h0a14.39,14.39,0,0,1-14.38,14.39h-2.45A14.39,14.39,0,0,0,334.93,328h0a14.39,14.39,0,0,0,14.39,14.39H499.94A14.39,14.39,0,0,0,514.33,328h0A14.39,14.39,0,0,0,499.94,313.64Z"/><line class="cls-15" x1="379" y1="1054" x2="192" y2="1157"/><line class="cls-22" x1="542" y1="987" x2="355" y2="1090"/><line class="cls-23" x1="471" y1="967" x2="252.5" y2="1087.5"/><rect class="cls-12" x="377.13" y="934.89" width="3.87" height="121.11"/><polygon class="cls-12" points="29.18 867.41 29.65 866.78 29.65 865.29 29.18 867.41"/><path class="cls-12" d="M74.83,923l34.92,29L99.3,792l20.85,30.87L99.29,728.28h0l-1.66-17.2,6.66,9.66L93.13,664.6l-7.74-79.83,10.37,22-17.07-133,9.14,16-13-190.92V299L56.47,437.5l16-28-20.7,93,14.12-20L48,586.5l17.89-18-31.07,80,18.83-20c-2.1,20.1-27.3,67-27.3,67,5.65-3,22.59-22,22.59-22l-19.76,137,13.17-23L24,956"/><polygon class="cls-12" points="153.15 802.38 168.34 829.55 167.99 829.2 194.77 845.54 194.89 845.62 194.94 845.74 205.96 869.93 194.14 846.12 194.31 846.31 167 830.88 166.79 830.76 166.65 830.53 150.56 803.88 153.15 802.38"/><polygon class="cls-12" points="190.94 829.56 164.32 825.75 164.48 824.77 190.94 829.56"/><polygon class="cls-12" points="334.5 981.81 314.11 956.11 314.9 955.5 334.5 981.81"/><polygon class="cls-12" points="311.85 1069 314.35 900 316.85 1069 311.85 1069"/><polygon class="cls-12" points="295.36 1011.17 302.25 1025.01 293.64 1012.18 295.36 1011.17"/><polygon class="cls-12" points="314.89 998.32 295.13 1012.35 295.47 1011.91 282.31 1040.07 293.53 1011.09 293.62 1010.84 293.87 1010.65 313.11 995.91 314.89 998.32"/><polygon class="cls-12" points="315.67 976.03 328.6 988.2 329 988.57 329.04 989.01 332.35 1023 326.42 989.37 326.86 990.19 313.04 979.05 315.67 976.03"/><polygon class="cls-12" points="338.85 1013.5 326.94 989.92 328.76 989.08 338.85 1013.5"/><polygon class="cls-12" points="315.3 937.73 309.69 948.27 304.35 958.97 309.25 948.06 314.41 937.27 315.3 937.73"/><polygon class="cls-12" points="309.13 958.33 308.79 948.54 309.79 948.56 309.13 958.33"/><polygon class="cls-12" points="464.21 969 469.21 529 474.21 969 464.21 969"/><polygon class="cls-12" points="478.48 605 478.35 636 478.23 605 478.48 605"/><polygon class="cls-12" points="487.85 617.5 477.65 603.64 478.06 603.36 487.85 617.5"/><polygon class="cls-12" points="469.33 575.35 484.85 625.5 468.38 575.65 469.33 575.35"/><polygon class="cls-12" points="469.31 624 435.85 693.5 468.4 623.57 469.31 624"/><polygon class="cls-12" points="450.85 691.5 450.85 660.75 451.85 660.76 450.85 691.5"/><polygon class="cls-12" points="470.81 678.23 479.78 717.27 479.59 716.89 502.21 745.2 502.3 745.3 502.31 745.42 507.85 779.5 501.39 745.58 501.49 745.8 478.11 718.11 477.98 717.95 477.92 717.73 467.9 678.94 470.81 678.23"/><polygon class="cls-12" points="501.85 723.5 476.62 710.94 477.08 710.06 501.85 723.5"/><polygon class="cls-12" points="471.29 731.62 442.35 843 466.42 730.47 471.29 731.62"/><polygon class="cls-12" points="444.85 777.5 461.71 759.36 462.43 760.05 444.85 777.5"/><polygon class="cls-12" points="426.85 851.5 430.47 821.45 430.48 821.37 430.53 821.29 455.98 781.33 457.66 782.43 431.18 821.71 431.24 821.55 426.85 851.5"/><polygon class="cls-12" points="430.85 917.5 436.45 883.21 436.5 882.92 436.74 882.6 466.64 842.49 472.07 846.9 438.97 884.4 439.26 883.79 430.85 917.5"/><polygon class="cls-12" points="449.85 899.5 447.85 868.75 451.85 868.75 449.85 899.5"/><polygon class="cls-12" points="470.67 787.03 497.72 811.5 498.11 811.85 498.16 812.32 506.35 882 495.54 812.68 495.99 813.5 468.04 790.05 470.67 787.03"/><polygon class="cls-12" points="489.85 833.5 484.48 803.2 487.45 802.82 489.85 833.5"/><polygon class="cls-12" points="519.5 859.81 499.1 834.11 499.9 833.5 519.5 859.81"/><polygon class="cls-12" points="507.85 836.5 495.49 813.13 498.22 811.88 507.85 836.5"/><polygon class="cls-12" points="496.85 960.5 495.4 932.5 495.81 933.52 466.86 906.95 471.85 902.05 497.89 931.48 498.34 931.98 498.31 932.5 496.85 960.5"/><polygon class="cls-12" points="485.85 940.5 485.23 926.5 485.26 926.7 482.16 918.83 484.05 918.17 486.44 926.3 486.48 926.42 486.48 926.5 485.85 940.5"/><polygon class="cls-12" points="179.85 945.5 178.4 917.5 178.81 918.52 149.86 891.95 154.85 887.05 180.89 916.48 181.34 916.98 181.31 917.5 179.85 945.5"/><polygon class="cls-12" points="168.85 925.5 168.23 911.5 168.26 911.7 165.16 903.83 167.05 903.17 169.44 911.3 169.48 911.42 169.48 911.5 168.85 925.5"/><polygon class="cls-12" points="367.41 592 383.74 696 375.57 685 391.09 745 380.88 729.5 390.68 761.5 384.15 749.5 400.48 832.5 387.42 810.5 411.1 902.5 397.22 883.5 416 989.5 345 968 351.48 917.5 342 929 362.1 839.5 350.67 848.5 367.41 592"/><rect class="cls-12" x="201.13" y="951.89" width="3.87" height="121.11"/><polygon class="cls-12" points="221 1020 208.5 961.5 218.5 970.5 204.5 756.5 195.5 940.5 202.5 927.5 192 967 185 991 196 977 185 1009 221 1020"/><polygon class="cls-12" points="153.81 922.05 125.87 945.5 126.31 944.68 115.5 1014 123.69 944.32 123.75 943.85 124.13 943.5 151.19 919.03 153.81 922.05"/><polygon class="cls-12" points="132 965.5 134.4 934.82 137.38 935.2 132 965.5"/><polygon class="cls-12" points="102.35 991.81 121.96 965.5 122.75 966.11 102.35 991.81"/><polygon class="cls-12" points="114 968.5 123.64 943.88 126.36 945.13 114 968.5"/><path class="cls-24" d="M1373.62,267h-50.27A17.38,17.38,0,0,1,1306,249.63h0a17.38,17.38,0,0,1,17.38-17.38h13.31A17.37,17.37,0,0,0,1354,214.88h0a17.38,17.38,0,0,0-17.37-17.38H1256.8a17.37,17.37,0,0,1-17.37-17.37h0a17.38,17.38,0,0,1,17.37-17.38h-.74a17.38,17.38,0,0,0,17.38-17.37h0A17.38,17.38,0,0,0,1256.06,128h-91.68A17.37,17.37,0,0,0,1147,145.38h0a17.37,17.37,0,0,0,17.37,17.37H1191a17.38,17.38,0,0,1,17.37,17.38h0A17.37,17.37,0,0,1,1191,197.5h-43.62A17.38,17.38,0,0,0,1130,214.88h0a17.38,17.38,0,0,0,17.38,17.37h64.32a17.38,17.38,0,0,1,17.38,17.38h0A17.38,17.38,0,0,1,1211.7,267h-20a17.38,17.38,0,0,0-17.38,17.38h0a17.38,17.38,0,0,0,17.38,17.37h181.88A17.38,17.38,0,0,0,1391,284.38h0A17.38,17.38,0,0,0,1373.62,267Z"/><path class="cls-24" d="M274.38,135.33H223.75A14.33,14.33,0,0,1,209.42,121h0a14.33,14.33,0,0,1,14.33-14.33h11a14.34,14.34,0,0,0,0-28.67H159.1a14.34,14.34,0,0,0,0,28.67h10.37A14.33,14.33,0,0,1,183.8,121h0a14.33,14.33,0,0,1-14.33,14.33H124.33a14.34,14.34,0,0,0,0,28.67H274.38a14.34,14.34,0,0,0,0-28.67Z"/><path class="cls-12" d="M1378,252l19,356-10-24,20,241-83,84,19.5-168.5-14,23,21-137s-18,19-24,22c0,0,26.77-46.9,29-67l-20,20,33-80-19,18,19-104-15,20,22-93-17,28Z"/><path class="cls-12" d="M1509.31,585.05l40.72,188c-15.66-10.05-40.72-68.9-40.72-68.9l44,186.6L1482,864l-32.14,27.5,5.58-92.74L1436.5,837l26.78-114.34h0l2.14-20.78-8.56,11.67,14.34-67.86,9.93-96.49L1457,598l32.74-183L1468,443l30.35-290L1539,577s-24-55-29.69-73.77"/><path class="cls-25" d="M684.67,58.33H730A15.68,15.68,0,0,1,745.67,74h0A15.68,15.68,0,0,1,730,89.67H718a15.67,15.67,0,0,0-15.67,15.66h0A15.67,15.67,0,0,0,718,121H888.67a15.66,15.66,0,0,0,15.66-15.67h0a15.66,15.66,0,0,0-15.66-15.66h-58A15.67,15.67,0,0,1,815,74h0a15.67,15.67,0,0,1,15.67-15.67h18a15.66,15.66,0,0,0,15.66-15.66h0A15.66,15.66,0,0,0,848.67,27h-164A15.66,15.66,0,0,0,669,42.67h0A15.66,15.66,0,0,0,684.67,58.33Z"/><path class="cls-9" d="M48.13,59.13c-9.76-3.48-11.57-13.75-11.57-13.75L36.48,45c-3,12.14-11.86,14.61-11.86,14.61l-.26.07c9.76,3.48,11.57,13.75,11.57,13.75l.08.43C39.06,61.67,47.87,59.2,47.87,59.2Z"/><path class="cls-9" d="M474.65,252.27c-6.18-2.21-7.33-8.71-7.33-8.71l0-.27c-1.93,7.68-7.51,9.25-7.51,9.25l-.17,0c6.18,2.21,7.33,8.71,7.33,8.71l.05.27c1.93-7.68,7.51-9.25,7.51-9.25Z"/><path class="cls-9" d="M376,446.65a7.3,7.3,0,0,1-4.46-5.3l0-.17c-1.18,4.68-4.57,5.63-4.57,5.63l-.1,0a7.33,7.33,0,0,1,4.46,5.3l0,.17c1.18-4.68,4.58-5.64,4.58-5.64Z"/><path class="cls-9" d="M879.61,233.92a7.3,7.3,0,0,1-4.45-5.3l0-.16c-1.18,4.67-4.57,5.63-4.57,5.63l-.11,0a7.3,7.3,0,0,1,4.46,5.3l0,.17c1.18-4.68,4.57-5.63,4.57-5.63Z"/><path class="cls-9" d="M1142.61,14.92a7.3,7.3,0,0,1-4.45-5.3l0-.16c-1.18,4.67-4.57,5.63-4.57,5.63l-.11,0a7.3,7.3,0,0,1,4.46,5.3l0,.17c1.18-4.68,4.57-5.63,4.57-5.63Z"/><path class="cls-9" d="M1049.61,230.92a7.3,7.3,0,0,1-4.45-5.3l0-.16c-1.18,4.67-4.57,5.63-4.57,5.63l-.11,0a7.3,7.3,0,0,1,4.46,5.3l0,.17c1.18-4.68,4.57-5.63,4.57-5.63Z"/><path class="cls-9" d="M932.61,366.92a7.3,7.3,0,0,1-4.45-5.3l0-.16c-1.18,4.67-4.57,5.63-4.57,5.63l-.11,0a7.3,7.3,0,0,1,4.46,5.3l0,.17c1.18-4.68,4.57-5.63,4.57-5.63Z"/><path class="cls-9" d="M885.61,564.92a7.3,7.3,0,0,1-4.45-5.3l0-.16c-1.18,4.67-4.57,5.63-4.57,5.63l-.11,0a7.3,7.3,0,0,1,4.46,5.3l0,.17c1.18-4.68,4.57-5.63,4.57-5.63Z"/><path class="cls-9" d="M621.61,221.92a7.3,7.3,0,0,1-4.45-5.3l0-.16c-1.18,4.67-4.57,5.63-4.57,5.63l-.11,0a7.3,7.3,0,0,1,4.46,5.3l0,.17c1.18-4.68,4.57-5.63,4.57-5.63Z"/><path class="cls-9" d="M297.61,20.92a7.3,7.3,0,0,1-4.45-5.3l0-.16c-1.18,4.67-4.57,5.63-4.57,5.63l-.11,0a7.3,7.3,0,0,1,4.46,5.3l0,.17c1.18-4.68,4.57-5.63,4.57-5.63Z"/><path class="cls-9" d="M63.61,209.92a7.3,7.3,0,0,1-4.45-5.3l0-.16c-1.18,4.67-4.57,5.63-4.57,5.63l-.11,0a7.3,7.3,0,0,1,4.46,5.3l0,.17c1.18-4.68,4.57-5.63,4.57-5.63Z"/><path class="cls-9" d="M1215.72,336.35a8.47,8.47,0,0,1-5.17-6.13l0-.19c-1.36,5.41-5.29,6.51-5.29,6.51l-.11,0a8.48,8.48,0,0,1,5.16,6.13l0,.19c1.36-5.42,5.29-6.52,5.29-6.52Z"/><path class="cls-9" d="M980.37,39.19a8.48,8.48,0,0,1-5.16-6.14l0-.19c-1.36,5.42-5.29,6.52-5.29,6.52l-.12,0a8.47,8.47,0,0,1,5.17,6.13l0,.19c1.36-5.41,5.29-6.51,5.29-6.51Z"/><path class="cls-9" d="M171.89,554.18c-6.18-2.2-7.33-8.71-7.33-8.71l-.05-.27c-1.93,7.68-7.51,9.25-7.51,9.25l-.16,0c6.18,2.2,7.33,8.7,7.33,8.7l0,.27c1.93-7.68,7.51-9.25,7.51-9.25Z"/><path class="cls-12" d="M289.31,560.05l40.72,188c-15.66-10.05-40.72-68.9-40.72-68.9l44,186.6L262,839l-32.14,27.5,5.58-92.74L216.5,812l26.78-114.34h0l2.14-20.78-8.56,11.67,14.34-67.86,9.93-96.49L237,573l32.74-183L248,418l30.35-290L319,552s-24-55-29.69-73.77"/><polygon class="cls-9" points="430.43 58 432.16 58 431.3 59.5 430.43 61 429.56 59.5 428.7 58 430.43 58"/><polygon class="cls-9" points="183.43 203 185.16 203 184.3 204.5 183.43 206 182.56 204.5 181.7 203 183.43 203"/><polygon class="cls-9" points="147.43 36 149.16 36 148.3 37.5 147.43 39 146.56 37.5 145.7 36 147.43 36"/><polygon class="cls-9" points="185.43 121 187.16 121 186.3 122.5 185.43 124 184.56 122.5 183.7 121 185.43 121"/><polygon class="cls-9" points="519.43 69 521.16 69 520.3 70.5 519.43 72 518.57 70.5 517.7 69 519.43 69"/><polygon class="cls-9" points="185.43 296 187.16 296 186.3 297.5 185.43 299 184.56 297.5 183.7 296 185.43 296"/><polygon class="cls-9" points="72.43 264 74.16 264 73.3 265.5 72.43 267 71.56 265.5 70.7 264 72.43 264"/><polygon class="cls-9" points="24.43 295 26.16 295 25.3 296.5 24.43 298 23.57 296.5 22.7 295 24.43 295"/><polygon class="cls-9" points="44.43 383 46.16 383 45.3 384.5 44.43 386 43.56 384.5 42.7 383 44.43 383"/><polygon class="cls-9" points="199.43 650 201.16 650 200.3 651.5 199.43 653 198.56 651.5 197.7 650 199.43 650"/><polygon class="cls-9" points="11.43 498 13.16 498 12.3 499.5 11.43 501 10.56 499.5 9.7 498 11.43 498"/><polygon class="cls-9" points="29.43 569 31.16 569 30.3 570.5 29.43 572 28.57 570.5 27.7 569 29.43 569"/><polygon class="cls-9" points="688.43 268 690.16 268 689.3 269.5 688.43 271 687.57 269.5 686.7 268 688.43 268"/><polygon class="cls-9" points="766.43 181 768.16 181 767.3 182.5 766.43 184 765.57 182.5 764.7 181 766.43 181"/><polygon class="cls-9" points="426.43 747 428.16 747 427.3 748.5 426.43 750 425.56 748.5 424.7 747 426.43 747"/><polygon class="cls-9" points="1177.43 60 1179.16 60 1178.3 61.5 1177.43 63 1176.57 61.5 1175.7 60 1177.43 60"/><polygon class="cls-9" points="1385.43 45 1387.16 45 1386.3 46.5 1385.43 48 1384.57 46.5 1383.7 45 1385.43 45"/><polygon class="cls-9" points="1555.43 802 1557.16 802 1556.3 803.5 1555.43 805 1554.57 803.5 1553.7 802 1555.43 802"/><polygon class="cls-9" points="1035.43 599 1037.16 599 1036.3 600.5 1035.43 602 1034.57 600.5 1033.7 599 1035.43 599"/><polygon class="cls-9" points="1033.43 456 1035.16 456 1034.3 457.5 1033.43 459 1032.57 457.5 1031.7 456 1033.43 456"/><polygon class="cls-9" points="1430.43 716 1432.16 716 1431.3 717.5 1430.43 719 1429.57 717.5 1428.7 716 1430.43 716"/><polygon class="cls-9" points="1224.43 599 1226.16 599 1225.3 600.5 1224.43 602 1223.57 600.5 1222.7 599 1224.43 599"/><polygon class="cls-9" points="1545.43 335 1547.16 335 1546.3 336.5 1545.43 338 1544.57 336.5 1543.7 335 1545.43 335"/><polygon class="cls-9" points="1553.43 458 1555.16 458 1554.3 459.5 1553.43 461 1552.57 459.5 1551.7 458 1553.43 458"/><polygon class="cls-9" points="1432.43 520 1434.16 520 1433.3 521.5 1432.43 523 1431.57 521.5 1430.7 520 1432.43 520"/><polygon class="cls-9" points="1534.43 44 1536.16 44 1535.3 45.5 1534.43 47 1533.57 45.5 1532.7 44 1534.43 44"/><polygon class="cls-9" points="1436.43 300 1438.16 300 1437.3 301.5 1436.43 303 1435.57 301.5 1434.7 300 1436.43 300"/><polygon class="cls-9" points="1279.43 369 1281.16 369 1280.3 370.5 1279.43 372 1278.57 370.5 1277.7 369 1279.43 369"/><polygon class="cls-9" points="1434.43 408 1436.16 408 1435.3 409.5 1434.43 411 1433.57 409.5 1432.7 408 1434.43 408"/><polygon class="cls-9" points="1304.43 156 1306.16 156 1305.3 157.5 1304.43 159 1303.57 157.5 1302.7 156 1304.43 156"/><polygon class="cls-9" points="13.43 741 15.16 741 14.3 742.5 13.43 744 12.56 742.5 11.7 741 13.43 741"/><polygon class="cls-9" points="666.43 364 668.16 364 667.3 365.5 666.43 367 665.57 365.5 664.7 364 666.43 364"/><polygon class="cls-9" points="736.43 406 738.16 406 737.3 407.5 736.43 409 735.57 407.5 734.7 406 736.43 406"/><polygon class="cls-9" points="976.43 858 978.16 858 977.3 859.5 976.43 861 975.57 859.5 974.7 858 976.43 858"/><polygon class="cls-9" points="579.43 876 581.16 876 580.3 877.5 579.43 879 578.57 877.5 577.7 876 579.43 876"/><polygon class="cls-9" points="547.43 408 549.16 408 548.3 409.5 547.43 411 546.57 409.5 545.7 408 547.43 408"/><polygon class="cls-9" points="567.43 500 569.16 500 568.3 501.5 567.43 503 566.57 501.5 565.7 500 567.43 500"/><polygon class="cls-9" points="418.43 506 420.16 506 419.3 507.5 418.43 509 417.56 507.5 416.7 506 418.43 506"/><polygon class="cls-9" points="145.43 362 147.16 362 146.3 363.5 145.43 365 144.56 363.5 143.7 362 145.43 362"/><polygon class="cls-9" points="453.43 402 455.16 402 454.3 403.5 453.43 405 452.56 403.5 451.7 402 453.43 402"/><polygon class="cls-9" points="229.43 387 231.16 387 230.3 388.5 229.43 390 228.56 388.5 227.7 387 229.43 387"/><polygon class="cls-9" points="366.43 575 368.16 575 367.3 576.5 366.43 578 365.56 576.5 364.7 575 366.43 575"/><polygon class="cls-9" points="122.43 626 124.16 626 123.3 627.5 122.43 629 121.56 627.5 120.7 626 122.43 626"/><polygon class="cls-9" points="122.43 527 124.16 527 123.3 528.5 122.43 530 121.56 528.5 120.7 527 122.43 527"/><polygon class="cls-9" points="199.43 475 201.16 475 200.3 476.5 199.43 478 198.56 476.5 197.7 475 199.43 475"/><polygon class="cls-9" points="82.43 364 84.16 364 83.3 365.5 82.43 367 81.56 365.5 80.7 364 82.43 364"/><polygon class="cls-9" points="342.07 152 345 151.15 344.14 154.07 345 157 342.07 156.14 339.14 157 340 154.07 339.14 151.15 342.07 152"/><polygon class="cls-9" points="582.07 119 585 118.14 584.14 121.07 585 124 582.07 123.14 579.14 124 580 121.07 579.14 118.14 582.07 119"/><polygon class="cls-9" points="1226.07 521 1229 520.14 1228.14 523.07 1229 526 1226.07 525.14 1223.14 526 1224 523.07 1223.14 520.14 1226.07 521"/><polygon class="cls-9" points="1271.43 612 1273.16 612 1272.3 613.5 1271.43 615 1270.57 613.5 1269.7 612 1271.43 612"/><polygon class="cls-9" points="1307.43 724 1309.16 724 1308.3 725.5 1307.43 727 1306.57 725.5 1305.7 724 1307.43 724"/><polygon class="cls-9" points="1201.43 693 1203.16 693 1202.3 694.5 1201.43 696 1200.57 694.5 1199.7 693 1201.43 693"/><polygon class="cls-9" points="1555.07 600 1558 599.14 1557.14 602.07 1558 605 1555.07 604.14 1552.14 605 1553 602.07 1552.14 599.14 1555.07 600"/><polygon class="cls-9" points="1438.07 634 1441 633.14 1440.14 636.07 1441 639 1438.07 638.14 1435.14 639 1436 636.07 1435.14 633.14 1438.07 634"/><polygon class="cls-9" points="763.07 89 766 88.14 765.14 91.07 766 94 763.07 93.14 760.14 94 761 91.07 760.14 88.14 763.07 89"/><polygon class="cls-9" points="1069.07 149 1072 148.15 1071.14 151.07 1072 154 1069.07 153.14 1066.14 154 1067 151.07 1066.14 148.15 1069.07 149"/><path class="cls-9" d="M1545.61,181.92a7.3,7.3,0,0,1-4.45-5.3l0-.16c-1.18,4.67-4.57,5.63-4.57,5.63l-.11,0a7.3,7.3,0,0,1,4.46,5.3l0,.17c1.18-4.68,4.57-5.63,4.57-5.63Z"/><path class="cls-9" d="M1396.37,199.19a8.48,8.48,0,0,1-5.16-6.14l0-.19c-1.36,5.42-5.29,6.52-5.29,6.52l-.12,0a8.47,8.47,0,0,1,5.17,6.13l0,.19c1.36-5.41,5.29-6.51,5.29-6.51Z"/><polygon class="cls-9" points="1460.43 222 1462.16 222 1461.3 223.5 1460.43 225 1459.57 223.5 1458.7 222 1460.43 222"/><polygon class="cls-9" points="1473.07 137 1476 136.15 1475.14 139.07 1476 142 1473.07 141.14 1470.14 142 1471 139.07 1470.14 136.15 1473.07 137"/><path class="cls-9" d="M336,768.65a7.3,7.3,0,0,1-4.46-5.3l0-.17c-1.18,4.68-4.57,5.63-4.57,5.63l-.1,0a7.33,7.33,0,0,1,4.46,5.3l0,.17c1.18-4.68,4.58-5.64,4.58-5.64Z"/><polygon class="cls-9" points="567.43 614 569.16 614 568.3 615.5 567.43 617 566.57 615.5 565.7 614 567.43 614"/><polygon class="cls-9" points="119.43 852 121.16 852 120.3 853.5 119.43 855 118.56 853.5 117.7 852 119.43 852"/><polygon class="cls-9" points="416.43 677 418.16 677 417.3 678.5 416.43 680 415.56 678.5 414.7 677 416.43 677"/><polygon class="cls-9" points="323.43 880 325.16 880 324.3 881.5 323.43 883 322.56 881.5 321.7 880 323.43 880"/><polygon class="cls-9" points="168.43 762 170.16 762 169.3 763.5 168.43 765 167.56 763.5 166.7 762 168.43 762"/><polygon class="cls-9" points="1229.43 832 1231.16 832 1230.3 833.5 1229.43 835 1228.57 833.5 1227.7 832 1229.43 832"/><polygon class="cls-9" points="1236.43 753 1238.16 753 1237.3 754.5 1236.43 756 1235.57 754.5 1234.7 753 1236.43 753"/><polygon class="cls-9" points="1328.43 801 1330.16 801 1329.3 802.5 1328.43 804 1327.57 802.5 1326.7 801 1328.43 801"/><polygon class="cls-9" points="949.43 483 951.16 483 950.3 484.5 949.43 486 948.57 484.5 947.7 483 949.43 483"/><polygon class="cls-9" points="904.43 852 906.16 852 905.3 853.5 904.43 855 903.57 853.5 902.7 852 904.43 852"/></svg>